<svg xmlns="http://www.w3.org/2000/svg" width="141.043" height="141" viewBox="0 0 141.043 141">
  <g id="iconfinder_N_F009_09_TalkingArtboard_1_6572258" transform="translate(-5.451 -21.6)">
    <path id="Path_72" data-name="Path 72" d="M176.483,101.131a41.409,41.409,0,0,0-30.7-12.959c-22.725.343-41.652,20.073-42.192,43.982a45.916,45.916,0,0,0,18.04,37.877,6.215,6.215,0,0,1,2.482,4.955v8.821a1.49,1.49,0,0,0,1.447,1.523h41.712a1.487,1.487,0,0,0,1.447-1.523V174.98a6.165,6.165,0,0,1,2.453-4.928A45.656,45.656,0,0,0,189.115,136.9a46.454,46.454,0,0,0-12.632-35.766Zm-6.989,66.433a9.272,9.272,0,0,0-3.673,7.416v7.3h-38.8v-7.294a9.318,9.318,0,0,0-3.7-7.439,42.808,42.808,0,0,1-16.82-35.321c.5-22.288,18.152-40.687,39.345-41.006,17.5-.27,33.128,11.482,38.558,28.994s-.6,36.7-14.886,47.351Z" transform="translate(-70.439 -46.523)" stroke="#000" stroke-width="1"/>
    <path id="Path_73" data-name="Path 73" d="M201.63,195.65c1.531-1.813,2.343-4.6,1.052-8.226-2.418-6.78-7.628-8.466-10.161-8.874a7.382,7.382,0,0,0-3.6-5.863,7.572,7.572,0,0,0-7.049-.565,6.394,6.394,0,0,0-6.471-1.872,5.064,5.064,0,0,0-2.63,1.606,5.072,5.072,0,0,0-2.633-1.606,6.413,6.413,0,0,0-6.468,1.872,7.538,7.538,0,0,0-7.033.565,7.382,7.382,0,0,0-3.587,5.854,12.838,12.838,0,0,0-10.161,8.874c-1.291,3.624-.479,6.413,1.052,8.226-1.809,1.39-3.521,4.082-3.217,8.714.381,5.851,6.5,7.413,10.052,7.413h44.014c3.551,0,9.668-1.562,10.052-7.413C205.15,199.732,203.439,197.041,201.63,195.65Zm-58.048,8.5c-.312-4.751,1.97-6.164,2.95-6.552a7.647,7.647,0,0,0,3.167.7,6.263,6.263,0,0,0,5.034-2.328,1.592,1.592,0,0,0-.207-2.146,1.378,1.378,0,0,0-2.019.22c-1.071,1.39-3.543,1.606-5.4.467-1.13-.692-2.833-2.4-1.545-6.008a10.04,10.04,0,0,1,7.728-6.922,9.806,9.806,0,0,0,2.647,4.582,5.986,5.986,0,0,0-.9,5.079,1.455,1.455,0,0,0,1.392,1.183,1.292,1.292,0,0,0,.317-.038,1.531,1.531,0,0,0,1.083-1.822,2.7,2.7,0,0,1,.529-2.718,5.674,5.674,0,0,0,3.927.246,7.481,7.481,0,0,0,4.678-4.543,1.551,1.551,0,0,0-.867-1.948,1.413,1.413,0,0,0-1.833.921,4.561,4.561,0,0,1-2.75,2.636,3.1,3.1,0,0,1-2.471-.337l-.067-.038a5.224,5.224,0,0,1-.763-.553,6.617,6.617,0,0,1-2.324-4.416c0-.024,0-.044,0-.068a5.5,5.5,0,0,1,0-.908,4.306,4.306,0,0,1,2.118-3.487,5.1,5.1,0,0,1,3.994-.636q-.261.579-.465,1.183a1.552,1.552,0,0,0,.856,1.954,1.412,1.412,0,0,0,1.838-.91c1.058-3.088,2.783-4.3,5.288-3.715a2.5,2.5,0,0,1,1.817,2.482v21.425c-5.658,1.757-7.458-2.7-7.656-3.254a1.412,1.412,0,0,0-1.842-.9,1.553,1.553,0,0,0-.849,1.958,9.536,9.536,0,0,0,1.867,3.014,9.212,9.212,0,0,0-4.225,5.673,1.534,1.534,0,0,0,1.027,1.849,1.385,1.385,0,0,0,.362.05,1.453,1.453,0,0,0,1.391-1.133c.045-.175,1.091-4.141,4.731-4.239a8.116,8.116,0,0,0,2.716.453,10.506,10.506,0,0,0,2.488-.319v8.445H150.773C150.492,208.731,143.877,208.677,143.582,204.152Zm58.4,0c-.3,4.526-6.91,4.579-7.191,4.579H174.217v-8.445a10.487,10.487,0,0,0,2.485.319,8.087,8.087,0,0,0,2.713-.453c3.643.112,4.681,4.049,4.731,4.236a1.432,1.432,0,0,0,1.751,1.1,1.538,1.538,0,0,0,1.033-1.861,9.126,9.126,0,0,0-4.211-5.691,9.538,9.538,0,0,0,1.854-3,1.553,1.553,0,0,0-.854-1.955,1.412,1.412,0,0,0-1.84.908,6.158,6.158,0,0,1-2.828,3.147,6.44,6.44,0,0,1-4.826.1V175.711a2.5,2.5,0,0,1,1.815-2.482c2.521-.592,4.247.627,5.3,3.715a1.412,1.412,0,0,0,1.838.91,1.552,1.552,0,0,0,.856-1.954q-.2-.6-.465-1.183a5.093,5.093,0,0,1,3.985.633,4.307,4.307,0,0,1,2.107,3.482,6.48,6.48,0,0,1-2.324,5.392,5.361,5.361,0,0,1-.743.541l-.092.053a3.064,3.064,0,0,1-2.466.331,4.561,4.561,0,0,1-2.75-2.633,1.413,1.413,0,0,0-1.833-.921,1.551,1.551,0,0,0-.867,1.948,7.49,7.49,0,0,0,4.675,4.543,5.764,5.764,0,0,0,1.636.24,5.7,5.7,0,0,0,2.3-.488,2.728,2.728,0,0,1,.526,2.721,1.531,1.531,0,0,0,1.083,1.822,1.315,1.315,0,0,0,.317.038,1.455,1.455,0,0,0,1.392-1.183,6,6,0,0,0-.9-5.079,9.79,9.79,0,0,0,2.649-4.576,10.034,10.034,0,0,1,7.728,6.922c1.289,3.612-.415,5.324-1.545,6.008-1.856,1.139-4.328.926-5.4-.467a1.378,1.378,0,0,0-2.019-.22,1.592,1.592,0,0,0-.207,2.146,6.278,6.278,0,0,0,5.034,2.328,7.648,7.648,0,0,0,3.167-.7C200.016,197.987,202.3,199.4,201.986,204.152Z" transform="translate(-96.811 -103.441)" stroke="#000" stroke-width="1"/>
    <path id="Path_74" data-name="Path 74" d="M219.379,440.58H178.073a1.526,1.526,0,0,0,0,3.047h41.306a1.526,1.526,0,0,0,0-3.047Z" transform="translate(-122.753 -293.069)" stroke="#000" stroke-width="1"/>
    <path id="Path_75" data-name="Path 75" d="M219.379,479.6H178.073a1.526,1.526,0,0,0,0,3.047h41.306a1.526,1.526,0,0,0,0-3.047Z" transform="translate(-122.753 -320.547)" stroke="#000" stroke-width="1"/>
    <path id="Path_76" data-name="Path 76" d="M252.283,38.5a1.48,1.48,0,0,0,1.433-1.523V23.623a1.436,1.436,0,1,0-2.867,0V36.976A1.48,1.48,0,0,0,252.283,38.5Z" transform="translate(-176.31)" stroke="#000" stroke-width="1"/>
    <path id="Path_77" data-name="Path 77" d="M95.089,80.048A1.375,1.375,0,0,0,97.116,80a1.593,1.593,0,0,0-.043-2.155L87.054,67.663a1.374,1.374,0,0,0-2.026.047,1.592,1.592,0,0,0,.045,2.154Z" transform="translate(-56.622 -31.788)" stroke="#000" stroke-width="1"/>
    <path id="Path_78" data-name="Path 78" d="M22.651,223.123a1.483,1.483,0,0,0-1.436-1.526H7.472a1.417,1.417,0,0,0-1.3.742,1.609,1.609,0,0,0,0,1.565,1.417,1.417,0,0,0,1.3.742H21.215A1.483,1.483,0,0,0,22.651,223.123Z" transform="translate(0 -139.776)" stroke="#000" stroke-width="1"/>
    <path id="Path_79" data-name="Path 79" d="M67.8,356.8,56.086,367.662a1.59,1.59,0,0,0-.138,2.149,1.375,1.375,0,0,0,2.022.146L69.681,359.1a1.592,1.592,0,0,0,.139-2.15A1.376,1.376,0,0,0,67.8,356.8Z" transform="translate(-35.812 -234.139)" stroke="#000" stroke-width="1"/>
    <path id="Path_80" data-name="Path 80" d="M382.478,80.5a1.392,1.392,0,0,0,.991-.423l10-10.184a1.591,1.591,0,0,0,.045-2.154,1.374,1.374,0,0,0-2.026-.047L381.473,77.877a1.592,1.592,0,0,0-.339,1.669,1.436,1.436,0,0,0,1.332.955Z" transform="translate(-269.99 -31.809)" stroke="#000" stroke-width="1"/>
    <path id="Path_81" data-name="Path 81" d="M461.115,221.6H447.372a1.417,1.417,0,0,0-1.3.742,1.609,1.609,0,0,0,0,1.565,1.417,1.417,0,0,0,1.3.742h13.743a1.417,1.417,0,0,0,1.3-.742,1.609,1.609,0,0,0,0-1.565A1.417,1.417,0,0,0,461.115,221.6Z" transform="translate(-316.641 -139.776)" stroke="#000" stroke-width="1"/>
    <path id="Path_82" data-name="Path 82" d="M418.109,367.662,406.4,356.8a1.376,1.376,0,0,0-2.023.148,1.592,1.592,0,0,0,.139,2.15l11.711,10.862a1.375,1.375,0,0,0,2.022-.146,1.591,1.591,0,0,0-.138-2.149Z" transform="translate(-286.437 -234.139)" stroke="#000" stroke-width="1"/>
  </g>
</svg>
