<svg xmlns="http://www.w3.org/2000/svg" width="141.539" height="141.657" viewBox="0 0 141.539 141.657">
  <g id="research_x2C__biology_x2C__Corona_virus_x2C__Covid-19_x2C__microscope" transform="translate(-4.25 -3.444)">
    <g id="research" transform="translate(5 4.351)">
      <g id="biology_1_" transform="translate(31.111)">
        <g id="XMLID_470_" transform="translate(67.511 48.103)">
          <path id="Path_123" data-name="Path 123" d="M45.422,22.554a2.837,2.837,0,0,1,.461,2.829A35.044,35.044,0,0,1,70.254,58.71V99.759h2.593V58.71A37.629,37.629,0,0,0,45.422,22.554Z" transform="translate(-39.246 -22.554)" stroke="#000" stroke-width="1.5"/>
          <path id="Path_124" data-name="Path 124" d="M44.629,30.095a2.4,2.4,0,0,1-1.589,2.064A19.456,19.456,0,0,1,53.307,49.293V87.749H55.9V49.293A22.039,22.039,0,0,0,44.629,30.095Z" transform="translate(-43.04 -10.544)" stroke="#000" stroke-width="1.5"/>
        </g>
        <g id="XMLID_476_" transform="translate(12.963 103.52)">
          <g id="XMLID_483_">
            <g id="XMLID_484_">
              <path id="XMLID_485_" d="M76.444,54.37H22V44H76.444ZM24.593,51.778H73.852V46.593H24.593Z" transform="translate(-22 -44)" stroke="#000" stroke-width="1.5"/>
            </g>
          </g>
        </g>
        <g id="XMLID_488_" transform="translate(64.815 106.089)">
          <g id="XMLID_489_">
            <g id="XMLID_490_">
              <path id="XMLID_491_" d="M57.556,47.593H42V45H57.556Z" transform="translate(-42 -45)" stroke="#000" stroke-width="1.5"/>
            </g>
          </g>
        </g>
        <g id="XMLID_494_" transform="translate(52.033 9.02)">
          <g id="XMLID_504_">
            <g id="XMLID_505_">
              <path id="Path_125" data-name="Path 125" d="M39.561,21.573,42.8,8.377a13,13,0,0,1-2.541-.547l-3.186,13A12.327,12.327,0,0,1,39.561,21.573Z" transform="translate(-37.07 -7.83)" stroke="#000" stroke-width="1.5"/>
              <path id="Path_126" data-name="Path 126" d="M44.476,21.985,47.535,9.5a14.164,14.164,0,0,1-2.6-.28L41.961,21.355A12.934,12.934,0,0,1,44.476,21.985Z" transform="translate(-29.281 -5.618)" stroke="#000" stroke-width="1.5"/>
            </g>
          </g>
        </g>
        <g id="XMLID_524_" transform="translate(37.383 81.759)">
          <g id="XMLID_531_">
            <g id="XMLID_532_">
              <path id="XMLID_533_" d="M41.012,51.313l-9.528-2.307-.065-13.349,15.812,3.876Zm-6.946-4.35,5.592,1.351,3.728-7.06-9.359-2.294Z" transform="translate(-31.419 -35.656)" stroke="#000" stroke-width="1.5"/>
            </g>
          </g>
        </g>
        <g id="XMLID_536_" transform="translate(52.293)">
          <g id="XMLID_540_">
            <g id="XMLID_541_">
              <path id="XMLID_542_" d="M57.314,19.36,37.17,14.423,39.636,4.351,59.783,9.287ZM40.3,12.52l15.115,3.7,1.234-5.037-15.11-3.7Z" transform="translate(-37.17 -4.351)" stroke="#000" stroke-width="1.5"/>
            </g>
          </g>
          <g id="XMLID_548_">
            <g id="XMLID_549_">
              <path id="XMLID_550_" d="M57.314,19.36,37.17,14.423,39.636,4.351,59.783,9.287ZM40.3,12.52l15.115,3.7,1.234-5.037-15.11-3.7Z" transform="translate(-37.17 -4.351)" stroke="#000" stroke-width="1.5"/>
            </g>
          </g>
        </g>
        <path id="Path_127" data-name="Path 127" d="M55.8,64.657l-3.2,13.087L32.447,72.808,46.608,15.016l20.144,4.936L63.8,32a17.149,17.149,0,0,1,2.507.664l3.578-14.607L44.7,11.882,29.31,74.708l25.184,6.173,3.834-15.657A16.63,16.63,0,0,1,55.8,64.657Z" transform="translate(2.605 7.643)" stroke="#000" stroke-width="1.5"/>
        <g id="XMLID_553_" transform="translate(49.083 42.288)">
          <g id="XMLID_557_">
            <g id="XMLID_558_">
              <path id="XMLID_559_" d="M49.255,49.016A14.259,14.259,0,1,1,64.422,35.724,14.277,14.277,0,0,1,49.255,49.016Zm1.706-25.869A11.667,11.667,0,1,0,61.835,35.556,11.681,11.681,0,0,0,50.961,23.148Z" transform="translate(-35.932 -20.529)" stroke="#000" stroke-width="1.5"/>
            </g>
          </g>
        </g>
        <g id="XMLID_562_" transform="translate(55.566 48.78)">
          <g id="XMLID_566_">
            <g id="XMLID_567_">
              <path id="XMLID_568_" d="M45.7,38.567a7.778,7.778,0,1,1,8.27-7.251A7.79,7.79,0,0,1,45.7,38.567Zm.853-12.934a5.185,5.185,0,1,0,4.833,5.514A5.192,5.192,0,0,0,46.551,25.633Z" transform="translate(-38.433 -23.029)" stroke="#000" stroke-width="1.5"/>
            </g>
          </g>
        </g>
        <g id="XMLID_571_" transform="translate(0 124.444)">
          <g id="XMLID_579_">
            <g id="XMLID_580_">
              <path id="XMLID_581_" d="M125.889,67.556H17v-1.3A14.276,14.276,0,0,1,31.259,52h82.963c10.853,0,11.413,10.681,11.6,14.192ZM19.663,64.963H123.13c-.651-7.251-3.365-10.37-8.911-10.37H31.257A11.686,11.686,0,0,0,19.663,64.963Z" transform="translate(-17 -52)" stroke="#000" stroke-width="1.5"/>
            </g>
          </g>
        </g>
      </g>
      <g id="XMLID_469_" transform="translate(0 1.683)">
        <path id="XMLID_586_" d="M62.037,90.947,48.659,70.88a33.778,33.778,0,1,1,13.378-7.9ZM49.714,67.8l9.73,14.591V61.856l.412-.384A30.793,30.793,0,0,0,69.815,38.7,31.2,31.2,0,1,0,48.771,68.117Z" transform="translate(-5 -5)" stroke="#000" stroke-width="1.5"/>
      </g>
    </g>
    <g id="XMLID_468_" transform="translate(18.774 19.805)">
      <g id="Group_91" data-name="Group 91">
        <g id="Group_90" data-name="Group 90">
          <path id="Path_128" data-name="Path 128" d="M14.364,28.328l2.349,1.1,2.823-6.051a13.026,13.026,0,0,1-2.351-1.091Z" transform="translate(-3.861 8.751)" stroke="#000" stroke-width="1.5"/>
          <path id="Path_129" data-name="Path 129" d="M25.327,11.635l-2.349-1.1-3.337,7.156a12.851,12.851,0,0,1,2.351,1.091Z" transform="translate(4.543 -9.952)" stroke="#000" stroke-width="1.5"/>
          <path id="Path_130" data-name="Path 130" d="M29.509,17.47l-.876-2.44-6.121,2.2a12.729,12.729,0,0,1,.866,2.445Z" transform="translate(9.115 -2.798)" stroke="#000" stroke-width="1.5"/>
          <path id="Path_131" data-name="Path 131" d="M10.313,21.9l.876,2.44,7.43-2.673a12.651,12.651,0,0,1-.894-2.434Z" transform="translate(-10.313 3.902)" stroke="#000" stroke-width="1.5"/>
          <path id="Path_132" data-name="Path 132" d="M30.527,22.978l-7.153-3.337a12.691,12.691,0,0,1-1.094,2.351l7.153,3.334Z" transform="translate(8.746 4.545)" stroke="#000" stroke-width="1.5"/>
          <path id="Path_133" data-name="Path 133" d="M11.632,14.166l-1.094,2.349,7.156,3.337A12.851,12.851,0,0,1,18.785,17.5Z" transform="translate(-9.955 -4.174)" stroke="#000" stroke-width="1.5"/>
          <path id="Path_134" data-name="Path 134" d="M17.228,10.312l-2.434.887,2.7,7.41a12.691,12.691,0,0,1,2.434-.887Z" transform="translate(-3.177 -10.312)" stroke="#000" stroke-width="1.5"/>
          <path id="Path_135" data-name="Path 135" d="M21.923,30.784l2.434-.887-2.7-7.41a12.691,12.691,0,0,1-2.434.887Z" transform="translate(3.883 9.079)" stroke="#000" stroke-width="1.5"/>
        </g>
        <path id="Path_136" data-name="Path 136" d="M26.759,41.019A14.259,14.259,0,1,1,41.019,26.759,14.276,14.276,0,0,1,26.759,41.019Zm0-25.926A11.667,11.667,0,1,0,38.426,26.759,11.681,11.681,0,0,0,26.759,15.093Z" transform="translate(-6.83 -6.827)" stroke="#000" stroke-width="1.5"/>
      </g>
      <rect id="XMLID_606_" width="2.593" height="2.593" transform="translate(17.337 14.747)" stroke="#000" stroke-width="1.5"/>
      <rect id="XMLID_607_" width="2.593" height="2.593" transform="translate(25.114 19.932)" stroke="#000" stroke-width="1.5"/>
      <rect id="XMLID_608_" width="2.593" height="2.593" transform="translate(14.744 22.524)" stroke="#000" stroke-width="1.5"/>
    </g>
  </g>
</svg>
