<svg id="Layer_1" data-name="Layer 1" xmlns="http://www.w3.org/2000/svg" viewBox="0 0 418.92 258.28"><defs><style>.cls-1{fill:#ebebeb;}.cls-2{fill:#e0e0e0;}.cls-3{fill:#f5f5f5;}.cls-4{fill:#fafafa;}.cls-5{fill:#263238;}.cls-6{fill:#ff2000;}.cls-7{opacity:0.3;}.cls-11,.cls-8{fill:#fff;}.cls-9{fill:#455a64;}.cls-10,.cls-11{opacity:0.5;}.cls-11{isolation:isolate;}.cls-12{fill:#ffbe9d;}.cls-13{fill:#eb996e;}.cls-14{opacity:0.2;}</style></defs><title>VPS</title><g id="freepik--background-complete--inject-90"><path class="cls-1" d="M229.92,252.73c11.44-10,12.47-26.39,10.42-40.77-.35-2.4-.36-5-1.75-7s-4.21-3.14-6.25-1.88c-1.7,1-2.25,3.21-3.06,5a14.24,14.24,0,0,1-5.06,6c-1.45,1-3.29,1.66-4.9,1-2.2-.92-2.76-3.76-3-6.16-.47-4.48-.94-8.94-1.4-13.41a22.25,22.25,0,0,0-1.51-7,7.49,7.49,0,0,0-5.2-4.52c-2.34-.38-5,1.24-5.25,3.64a23.21,23.21,0,0,0,.26,3,2.51,2.51,0,0,1-1.21,2.53,3,3,0,0,1-2.76-.8,32.07,32.07,0,0,1-6.67-8,44.09,44.09,0,0,0-6.32-8.32c-2.53-2.39-5.86-4.14-9.32-4s-6.88,2.71-7.38,6.17,1.86,6.69,4.3,9.18a53.61,53.61,0,0,0,12.27,9.39,4.43,4.43,0,0,1,2.08,1.8c.7,1.54-.65,3.29-2.16,4-1.72.79-3.68.83-5.52,1.25s-3.79,1.48-4.29,3.32c-.71,2.56,1.62,4.9,3.82,6.35a46.05,46.05,0,0,0,14.42,6.34,15.46,15.46,0,0,1,5.31,1.89c1.56,1.08,2.66,3.14,2,4.93s-2.82,2.57-4.7,2.42a32.35,32.35,0,0,1-5.49-1.42c-3.43-.88-7.65-.18-9.45,2.9a7.61,7.61,0,0,0-.07,6.79,17.54,17.54,0,0,0,4.35,5.52,46.31,46.31,0,0,0,21.2,11.66c7.94,1.8,15.09,1.74,22.37-1.87" transform="translate(-40.04 -5.36)"/><path class="cls-2" d="M231.3,263.41a106.25,106.25,0,0,0-6.09-19.32,215.21,215.21,0,0,0-11.07-22.18l-3.2-5.67c-1.06-1.85-2.11-3.7-3.26-5.43a109,109,0,0,0-7.08-9.61c-2.41-2.95-4.79-5.65-7-8.17s-4.41-4.82-6.45-6.84a84.32,84.32,0,0,0-10.37-8.78c-1.3-.94-2.33-1.64-3-2.1l-.81-.52a1.56,1.56,0,0,0-.28-.16,1.79,1.79,0,0,0,.26.2l.78.56c.69.48,1.7,1.2,3,2.16a91,91,0,0,1,10.24,8.87c2,2,4.16,4.33,6.4,6.85s4.62,5.24,7,8.19a105.81,105.81,0,0,1,7,9.59c1.13,1.74,2.16,3.56,3.22,5.42l3.2,5.67a219.58,219.58,0,0,1,11.07,22.13A108,108,0,0,1,231,263.5" transform="translate(-40.04 -5.36)"/><path class="cls-2" d="M207.56,210.81a6.26,6.26,0,0,0,.12-1.05c0-.65.1-1.66.14-2.87.07-2.43.06-5.78,0-9.47s0-7,.12-9.45c.05-1.21.1-2.19.15-2.86a4.7,4.7,0,0,0,0-1.06,5.29,5.29,0,0,0-.19,1c-.1.65-.19,1.65-.29,2.86-.19,2.42-.28,5.77-.26,9.47s.07,6.94.09,9.46v2.87A4.69,4.69,0,0,0,207.56,210.81Z" transform="translate(-40.04 -5.36)"/><path class="cls-2" d="M176.11,208.44a6.53,6.53,0,0,0,1.25,0c.79,0,1.95,0,3.38,0,2.86,0,6.8.13,11.15.46s8.26.81,11.06,1.24c1.42.21,2.56.4,3.35.53a7.38,7.38,0,0,0,1.24.16,7.25,7.25,0,0,0-1.21-.34c-.78-.18-1.91-.42-3.32-.65-2.83-.5-6.76-1-11.12-1.37a109.77,109.77,0,0,0-11.18-.33c-1.44,0-2.61.12-3.39.19A7,7,0,0,0,176.11,208.44Z" transform="translate(-40.04 -5.36)"/><path class="cls-2" d="M224.79,243.56a1.36,1.36,0,0,0,.17-.39l.4-1.18c.35-1,.81-2.51,1.36-4.35,1.1-3.7,2.45-8.85,3.91-14.55s2.72-10.86,3.74-14.58l1.22-4.38c.13-.49.24-.88.32-1.2a1.57,1.57,0,0,0,.09-.43,1.42,1.42,0,0,0-.17.4l-.41,1.17c-.34,1-.8,2.51-1.35,4.36-1.1,3.69-2.45,8.84-3.91,14.55s-2.72,10.86-3.74,14.57l-1.22,4.39c-.13.48-.24.87-.32,1.2A1.58,1.58,0,0,0,224.79,243.56Z" transform="translate(-40.04 -5.36)"/><path class="cls-2" d="M182.36,234.88a1.69,1.69,0,0,0,.42.13l1.23.26,4.56.94c3.84.8,9.12,2,15,3.26s11.13,2.39,15,3.1c2,.36,3.49.65,4.56.8l1.24.19a1.71,1.71,0,0,0,.45,0,1.62,1.62,0,0,0-.43-.12l-1.23-.27-4.56-.94c-3.84-.79-9.12-1.95-15-3.25s-11.13-2.4-15-3.11c-2-.36-3.49-.65-4.56-.79l-1.25-.19A2.09,2.09,0,0,0,182.36,234.88Z" transform="translate(-40.04 -5.36)"/><rect class="cls-3" x="190.84" y="88.95" width="55.19" height="169.06"/><rect class="cls-4" x="245.86" y="88.95" width="43.62" height="169.06"/><rect class="cls-2" x="193.8" y="116" width="46.81" height="13.18"/><rect class="cls-3" x="195.11" y="117.66" width="2.62" height="10.09"/><path class="cls-4" d="M240.86,125.14a.84.84,0,0,1-.83.84.85.85,0,0,1-.84-.84.84.84,0,0,1,.84-.83h0A.83.83,0,0,1,240.86,125.14Z" transform="translate(-40.04 -5.36)"/><circle class="cls-4" cx="199.99" cy="123.35" r="0.83"/><rect class="cls-3" x="204.16" y="118.95" width="2.58" height="7.75"/><rect class="cls-3" x="207.87" y="118.95" width="2.58" height="7.75"/><rect class="cls-3" x="211.6" y="118.95" width="2.58" height="7.75"/><rect class="cls-3" x="215.32" y="118.95" width="2.58" height="7.75"/><rect class="cls-3" x="219.04" y="118.95" width="2.58" height="7.75"/><rect class="cls-3" x="222.76" y="118.95" width="2.58" height="7.75"/><rect class="cls-3" x="226.48" y="118.95" width="2.58" height="7.75"/><rect class="cls-3" x="230.2" y="118.95" width="2.58" height="7.75"/><rect class="cls-3" x="233.92" y="118.95" width="2.58" height="7.75"/><rect class="cls-3" x="237.64" y="118.95" width="2.58" height="7.75"/><rect class="cls-2" x="193.8" y="137.12" width="46.81" height="13.18"/><rect class="cls-3" x="195.11" y="138.77" width="2.62" height="10.09"/><path class="cls-4" d="M240.86,146.25a.83.83,0,0,1-.83.83.83.83,0,1,1,0-1.66h0A.83.83,0,0,1,240.86,146.25Z" transform="translate(-40.04 -5.36)"/><circle class="cls-4" cx="199.99" cy="144.45" r="0.83"/><rect class="cls-3" x="204.16" y="140.06" width="2.58" height="7.75"/><rect class="cls-3" x="207.87" y="140.06" width="2.58" height="7.75"/><rect class="cls-3" x="211.6" y="140.06" width="2.58" height="7.75"/><rect class="cls-3" x="215.32" y="140.06" width="2.58" height="7.75"/><rect class="cls-3" x="219.04" y="140.06" width="2.58" height="7.75"/><rect class="cls-3" x="222.76" y="140.06" width="2.58" height="7.75"/><rect class="cls-3" x="226.48" y="140.06" width="2.58" height="7.75"/><rect class="cls-3" x="230.2" y="140.06" width="2.58" height="7.75"/><rect class="cls-3" x="233.92" y="140.06" width="2.58" height="7.75"/><rect class="cls-3" x="237.64" y="140.06" width="2.58" height="7.75"/><rect class="cls-2" x="193.8" y="158.23" width="46.81" height="13.18"/><rect class="cls-3" x="195.11" y="159.88" width="2.62" height="10.09"/><path class="cls-4" d="M240.86,167.35a.83.83,0,0,1-.83.83.84.84,0,0,1-.84-.83.85.85,0,0,1,.84-.84h0A.84.84,0,0,1,240.86,167.35Z" transform="translate(-40.04 -5.36)"/><circle class="cls-4" cx="199.99" cy="165.57" r="0.83"/><rect class="cls-3" x="204.16" y="161.17" width="2.58" height="7.75"/><rect class="cls-3" x="207.87" y="161.17" width="2.58" height="7.75"/><rect class="cls-3" x="211.6" y="161.17" width="2.58" height="7.75"/><rect class="cls-3" x="215.32" y="161.17" width="2.58" height="7.75"/><rect class="cls-3" x="219.04" y="161.17" width="2.58" height="7.75"/><rect class="cls-3" x="222.76" y="161.17" width="2.58" height="7.75"/><rect class="cls-3" x="226.48" y="161.17" width="2.58" height="7.75"/><rect class="cls-3" x="230.2" y="161.17" width="2.58" height="7.75"/><rect class="cls-3" x="233.92" y="161.17" width="2.58" height="7.75"/><rect class="cls-3" x="237.64" y="161.17" width="2.58" height="7.75"/><rect class="cls-2" x="193.8" y="179.33" width="46.81" height="13.18"/><rect class="cls-3" x="195.11" y="180.99" width="2.62" height="10.09"/><path class="cls-4" d="M240.86,188.47a.84.84,0,0,1-.83.84.85.85,0,0,1-.84-.84.84.84,0,0,1,.84-.83h0A.83.83,0,0,1,240.86,188.47Z" transform="translate(-40.04 -5.36)"/><circle class="cls-4" cx="199.99" cy="186.68" r="0.83"/><rect class="cls-3" x="204.16" y="182.28" width="2.58" height="7.75"/><rect class="cls-3" x="207.87" y="182.28" width="2.58" height="7.75"/><rect class="cls-3" x="211.6" y="182.28" width="2.58" height="7.75"/><rect class="cls-3" x="215.32" y="182.28" width="2.58" height="7.75"/><rect class="cls-3" x="219.04" y="182.28" width="2.58" height="7.75"/><rect class="cls-3" x="222.76" y="182.28" width="2.58" height="7.75"/><rect class="cls-3" x="226.48" y="182.28" width="2.58" height="7.75"/><rect class="cls-3" x="230.2" y="182.28" width="2.58" height="7.75"/><rect class="cls-3" x="233.92" y="182.28" width="2.58" height="7.75"/><rect class="cls-3" x="237.64" y="182.28" width="2.58" height="7.75"/><rect class="cls-2" x="193.8" y="200.45" width="46.81" height="13.18"/><rect class="cls-3" x="195.11" y="202.1" width="2.62" height="10.09"/><path class="cls-4" d="M240.86,209.58a.84.84,0,0,1-.83.84.85.85,0,0,1-.84-.84.84.84,0,0,1,.84-.83h0A.83.83,0,0,1,240.86,209.58Z" transform="translate(-40.04 -5.36)"/><circle class="cls-4" cx="199.99" cy="207.79" r="0.83"/><rect class="cls-3" x="204.16" y="203.39" width="2.58" height="7.75"/><rect class="cls-3" x="207.87" y="203.39" width="2.58" height="7.75"/><rect class="cls-3" x="211.6" y="203.39" width="2.58" height="7.75"/><rect class="cls-3" x="215.32" y="203.39" width="2.58" height="7.75"/><rect class="cls-3" x="219.04" y="203.39" width="2.58" height="7.75"/><rect class="cls-3" x="222.76" y="203.39" width="2.58" height="7.75"/><rect class="cls-3" x="226.48" y="203.39" width="2.58" height="7.75"/><rect class="cls-3" x="230.2" y="203.39" width="2.58" height="7.75"/><rect class="cls-3" x="233.92" y="203.39" width="2.58" height="7.75"/><rect class="cls-3" x="237.64" y="203.39" width="2.58" height="7.75"/><rect class="cls-2" x="193.8" y="221.56" width="46.81" height="13.18"/><rect class="cls-3" x="195.11" y="223.22" width="2.62" height="10.09"/><path class="cls-4" d="M240.86,230.69a.84.84,0,1,1-.83-.84.83.83,0,0,1,.83.83Z" transform="translate(-40.04 -5.36)"/><circle class="cls-4" cx="199.99" cy="228.9" r="0.83"/><rect class="cls-3" x="204.16" y="224.5" width="2.58" height="7.75"/><rect class="cls-3" x="207.87" y="224.5" width="2.58" height="7.75"/><rect class="cls-3" x="211.6" y="224.5" width="2.58" height="7.75"/><rect class="cls-3" x="215.32" y="224.5" width="2.58" height="7.75"/><rect class="cls-3" x="219.04" y="224.5" width="2.58" height="7.75"/><rect class="cls-3" x="222.76" y="224.5" width="2.58" height="7.75"/><rect class="cls-3" x="226.48" y="224.5" width="2.58" height="7.75"/><rect class="cls-3" x="230.2" y="224.5" width="2.58" height="7.75"/><rect class="cls-3" x="233.92" y="224.5" width="2.58" height="7.75"/><rect class="cls-3" x="237.64" y="224.5" width="2.58" height="7.75"/><rect class="cls-2" x="193.8" y="242.67" width="46.81" height="13.18"/><rect class="cls-3" x="195.11" y="244.33" width="2.62" height="10.09"/><circle class="cls-4" cx="199.99" cy="246.45" r="0.83"/><circle class="cls-4" cx="199.99" cy="250.01" r="0.83"/><rect class="cls-3" x="204.16" y="245.61" width="2.58" height="7.75"/><rect class="cls-3" x="207.87" y="245.61" width="2.58" height="7.75"/><rect class="cls-3" x="211.6" y="245.61" width="2.58" height="7.75"/><rect class="cls-3" x="215.32" y="245.61" width="2.58" height="7.75"/><rect class="cls-3" x="219.04" y="245.61" width="2.58" height="7.75"/><rect class="cls-3" x="222.76" y="245.61" width="2.58" height="7.75"/><rect class="cls-3" x="226.48" y="245.61" width="2.58" height="7.75"/><rect class="cls-3" x="230.2" y="245.61" width="2.58" height="7.75"/><rect class="cls-3" x="233.92" y="245.61" width="2.58" height="7.75"/><rect class="cls-3" x="237.64" y="245.61" width="2.58" height="7.75"/><path class="cls-2" d="M262.8,121.36a1.39,1.39,0,0,1-.06-.4,11.62,11.62,0,0,0-.05-1.18c-.05-.52,0-1.13-.06-1.84a11.54,11.54,0,0,0-.32-2.41,8.22,8.22,0,0,0-1.25-2.6,5.84,5.84,0,0,0-2.55-2.06,12.6,12.6,0,0,0-3.64-.73l-4-.35c-5.53-.48-10.54-.79-14.17-.86-1.82,0-3.26,0-4.3,0H231.2a1.41,1.41,0,0,1-.41,0,1.39,1.39,0,0,1,.41,0l1.16-.08c1,0,2.49-.09,4.31-.08,3.64,0,8.66.28,14.2.76l4,.35a12.79,12.79,0,0,1,3.72.78,6.19,6.19,0,0,1,2.67,2.18,8.72,8.72,0,0,1,1.25,2.74,10.65,10.65,0,0,1,.28,2.45v3C262.82,121.13,262.81,121.25,262.8,121.36Z" transform="translate(-40.04 -5.36)"/><path class="cls-2" d="M248.6,121.36a1.69,1.69,0,0,1,0-.38v-1.1c0-.45,0-1.07-.05-1.74a5.27,5.27,0,0,0-.58-2.16,4.21,4.21,0,0,0-2.11-1.63,5.85,5.85,0,0,0-3.07-.3,5.23,5.23,0,0,0-1.59.53,3.08,3.08,0,0,0-1.23,1.17,1.64,1.64,0,0,0,0,1.63,2.17,2.17,0,0,0,1.39,1.05,1.74,1.74,0,0,0,1.62-.48,2.31,2.31,0,0,0,.25-3.13,3.48,3.48,0,0,0-1.23-1.09,4.65,4.65,0,0,0-1.54-.42l-1.54-.21c-1-.11-1.95-.17-2.78-.21-1.7-.07-3.09,0-4,0H231a1.21,1.21,0,0,1-.38,0,1.58,1.58,0,0,1,.38,0l1.1-.06c1,0,2.35-.1,4.06-.07.86,0,1.79.08,2.8.18.5.05,1,.11,1.55.19l.81.12a3.06,3.06,0,0,1,.83.3,3.67,3.67,0,0,1,1.36,1.17,2.67,2.67,0,0,1-.28,3.57,2.1,2.1,0,0,1-2,.56,2.46,2.46,0,0,1-1.61-1.22,1.94,1.94,0,0,1,0-2,3.28,3.28,0,0,1,1.36-1.3,5.68,5.68,0,0,1,1.7-.57,6,6,0,0,1,3.25.36,4.37,4.37,0,0,1,2.22,1.77,5.55,5.55,0,0,1,.56,2.27c0,.68,0,1.3,0,1.74s0,.82-.06,1.1A1.75,1.75,0,0,1,248.6,121.36Z" transform="translate(-40.04 -5.36)"/><path class="cls-2" d="M266.62,121.36a2.16,2.16,0,0,1-.1-.44c0-.28-.14-.71-.25-1.25a25,25,0,0,0-1.38-4.46,13,13,0,0,0-4.08-5.45,7.52,7.52,0,0,0-3.72-1.42,40.36,40.36,0,0,0-4.39-.24c-6-.11-11.53-.09-15.5-.25-2-.07-3.59-.16-4.69-.25l-1.3-.1a2.34,2.34,0,0,1-.45-.07,3.38,3.38,0,0,1,.45,0l1.3,0c1.11,0,2.71.1,4.7.14,4,.09,9.44,0,15.49.15a41,41,0,0,1,4.43.24,8,8,0,0,1,3.87,1.5,11.62,11.62,0,0,1,2.6,2.73,15.38,15.38,0,0,1,1.53,2.89,22.63,22.63,0,0,1,1.31,4.56c.09.54.16,1,.18,1.27A1.78,1.78,0,0,1,266.62,121.36Z" transform="translate(-40.04 -5.36)"/><rect class="cls-2" x="194.45" y="91.05" width="45.52" height="6.61"/><rect class="cls-3" x="204.46" y="94.35" width="24.79" height="3.31"/></g><g id="freepik--Floor--inject-90"><path class="cls-5" d="M459,263.47c0,.09-93.79.17-209.45.17S40,263.56,40,263.47s93.75-.17,209.47-.17S459,263.38,459,263.47Z" transform="translate(-40.04 -5.36)"/></g><g id="freepik--Plants--inject-90"><path class="cls-6" d="M415.08,182.1s-3.75-2.44-8.23,6.51a116.28,116.28,0,0,0-6.16,14.13s-1.18,1.88-2.48.65-3.08-4.67-5.26-4-3,3.2-2.52,6.91,1.18,11.88,1.23,12.62-.34,1.8-1.35,1.11-6.88-7.1-9.77-4.14.11,13.1.42,14.21.09,1.59-.44,1.87-2.29-2.06-4-3.82-4.07-3.49-5.58-1.64-2,9.47,5.4,21.78l3.78,5.48,6.68-.42c14.22-1.78,20-6.81,20.49-9.12s-2.27-3.1-4.73-3.39-5.38-.24-5.49-.83.14-1.05,1.21-1.5,10.88-4.32,11.45-8.41-8.1-4.76-9.26-5.14-.57-1.36,0-1.76,7.5-4.87,10.71-6.78,4.76-4.06,3.91-6.24-4.66-1.4-6.42-1.68-1-2.37-1-2.37A116.07,116.07,0,0,0,415,192.56c4.31-9.05,0-10.51,0-10.51" transform="translate(-40.04 -5.36)"/><path class="cls-5" d="M411.06,190.13l-.08.2-.26.56-1,2.15c-.87,1.86-2.16,4.56-3.75,7.86-3.19,6.64-7.68,15.76-12.67,25.82s-9.5,19.17-12.72,25.79l-3.82,7.81-1,2.13-.27.55-.11.19.08-.2.26-.56,1-2.15c.87-1.86,2.15-4.55,3.75-7.86,3.19-6.64,7.68-15.76,12.67-25.82s9.5-19.17,12.73-25.79l3.81-7.81,1-2.13.28-.55A1.55,1.55,0,0,1,411.06,190.13Z" transform="translate(-40.04 -5.36)"/><path class="cls-5" d="M395.26,204.34a2.45,2.45,0,0,1,.17.45c.1.29.23.72.39,1.25.31,1.06.71,2.54,1.1,4.18s.75,3.07,1,4.2c.13.49.23.92.31,1.27a1.86,1.86,0,0,1,.09.47,2.2,2.2,0,0,1-.17-.45c-.1-.29-.24-.72-.39-1.25-.3-1.07-.65-2.55-1.07-4.19s-.76-3.06-1-4.19c-.13-.5-.24-.92-.32-1.27A1.86,1.86,0,0,1,395.26,204.34Z" transform="translate(-40.04 -5.36)"/><path class="cls-5" d="M399,216.28c0-.07,3-1,6.72-2.12s6.77-1.95,6.79-1.9-3,1-6.72,2.12S399,216.33,399,216.28Z" transform="translate(-40.04 -5.36)"/><path class="cls-5" d="M390.6,231.38a2,2,0,0,1,.49,0h1.34c1.12,0,2.68,0,4.4-.11s3.25-.2,4.39-.3l1.3-.11a2,2,0,0,1,.49,0,1.52,1.52,0,0,1-.47.1l-1.31.19c-1.12.14-2.67.29-4.4.37s-3.25.07-4.41,0c-.57,0-1,0-1.34-.06A2.67,2.67,0,0,1,390.6,231.38Z" transform="translate(-40.04 -5.36)"/><path class="cls-5" d="M384.87,221.32a1.59,1.59,0,0,1,.27.37c.16.24.38.6.65,1,.55.9,1.3,2.13,2.09,3.51s1.52,2.6,2,3.53c.26.45.46.82.59,1.08a1.73,1.73,0,0,1,.2.41,2.42,2.42,0,0,1-.27-.36l-.65-1.05c-.54-.89-1.3-2.13-2.09-3.5s-1.52-2.61-2-3.53c-.25-.46-.46-.83-.59-1.09A2,2,0,0,1,384.87,221.32Z" transform="translate(-40.04 -5.36)"/><path class="cls-5" d="M375.8,233.72a3.72,3.72,0,0,1,.34.47l.84,1.34c.7,1.14,1.67,2.72,2.72,4.46s2,3.34,2.65,4.5l.78,1.38a2.17,2.17,0,0,1,.26.53,3.23,3.23,0,0,1-.33-.49l-.84-1.33c-.71-1.14-1.67-2.72-2.72-4.47s-1.95-3.34-2.66-4.5l-.78-1.37A3.16,3.16,0,0,1,375.8,233.72Z" transform="translate(-40.04 -5.36)"/><path class="cls-5" d="M383.3,246A3.49,3.49,0,0,1,384,246l1.69-.07c1.43-.06,3.41-.15,5.58-.32s4.15-.35,5.57-.5l1.68-.17a2.93,2.93,0,0,1,.66,0,4.26,4.26,0,0,1-.62.13l-1.68.25c-1.42.18-3.38.41-5.57.56s-4.16.23-5.59.25H384A3.76,3.76,0,0,1,383.3,246Z" transform="translate(-40.04 -5.36)"/><path class="cls-6" d="M92.76,245.51a10.87,10.87,0,0,0-6.69-.86,5.55,5.55,0,0,0-3.32,1.45,2.36,2.36,0,0,0,0,3.3,3.11,3.11,0,0,0,2.07.55c1.77,0,3.74-.31,5.15.77.8.61,1.33,1.63,2.29,1.95a2.28,2.28,0,0,0,2.52-1.1,3.92,3.92,0,0,0,.3-2.87A4.4,4.4,0,0,0,92.76,245.51Z" transform="translate(-40.04 -5.36)"/><g class="cls-7"><path d="M92.76,245.51a10.87,10.87,0,0,0-6.69-.86,5.55,5.55,0,0,0-3.32,1.45,2.36,2.36,0,0,0,0,3.3,3.11,3.11,0,0,0,2.07.55c1.77,0,3.74-.31,5.15.77.8.61,1.33,1.63,2.29,1.95a2.28,2.28,0,0,0,2.52-1.1,3.92,3.92,0,0,0,.3-2.87A4.4,4.4,0,0,0,92.76,245.51Z" transform="translate(-40.04 -5.36)"/></g><path class="cls-6" d="M97.48,236.54c-1.25,1.77-3.67,1.16-4.78.07a9,9,0,0,1-2-4.17c-1-3.44-2-7-1.17-10.53a5.82,5.82,0,0,1,1.36-2.85,3.07,3.07,0,0,1,2.89-.94,4.51,4.51,0,0,1,2.51,2.67,25.14,25.14,0,0,1,2.44,10.78,8.63,8.63,0,0,1-1.22,5" transform="translate(-40.04 -5.36)"/><g class="cls-7"><path class="cls-8" d="M97.48,236.54c-1.25,1.77-3.67,1.16-4.78.07a9,9,0,0,1-2-4.17c-1-3.44-2-7-1.17-10.53a5.82,5.82,0,0,1,1.36-2.85,3.07,3.07,0,0,1,2.89-.94,4.51,4.51,0,0,1,2.51,2.67,25.14,25.14,0,0,1,2.44,10.78,8.63,8.63,0,0,1-1.22,5" transform="translate(-40.04 -5.36)"/></g><path class="cls-6" d="M100.89,239.12a6.51,6.51,0,0,1-1-6,11.49,11.49,0,0,1,3.57-5.09,18.77,18.77,0,0,1,6.34-3.68,6.56,6.56,0,0,1,2.84-.46,3,3,0,0,1,2.37,1.46c.65,1.27,0,2.8-.69,4.05a47.42,47.42,0,0,1-4.19,6.29,11.58,11.58,0,0,1-4.59,3.9c-1.9.75-3.87.62-4.86-.71" transform="translate(-40.04 -5.36)"/><path class="cls-5" d="M97.38,263.36a4.28,4.28,0,0,1-.11-.8c0-.59-.11-1.31-.2-2.21a30.11,30.11,0,0,0-.47-3.26,24.35,24.35,0,0,0-1.13-3.8,13.78,13.78,0,0,0-1.92-3.46,7.23,7.23,0,0,0-2.46-2.07A6.86,6.86,0,0,0,89,247.1a3.69,3.69,0,0,1-.8-.12,3.75,3.75,0,0,1,.82,0,6.24,6.24,0,0,1,2.16.58,7.22,7.22,0,0,1,2.6,2.08,13.62,13.62,0,0,1,2,3.54,22.16,22.16,0,0,1,1.14,3.91,27.23,27.23,0,0,1,.41,3.25c.06.94.09,1.7.09,2.22A3.55,3.55,0,0,1,97.38,263.36Z" transform="translate(-40.04 -5.36)"/><path class="cls-5" d="M97.24,261.67a1.21,1.21,0,0,1,0-.38v-5c-.06-3.33-.31-7.92-.83-13s-1.23-9.6-1.88-12.86c-.15-.81-.3-1.55-.45-2.19s-.26-1.21-.37-1.66-.18-.77-.25-1a2.38,2.38,0,0,1-.06-.37,1.48,1.48,0,0,1,.13.35l.3,1c.12.42.27,1,.43,1.64s.34,1.38.51,2.19a121.66,121.66,0,0,1,2,12.88c.52,5.06.74,9.67.74,13,0,1.66,0,3-.09,3.94,0,.44-.06.79-.08,1.07A1.49,1.49,0,0,1,97.24,261.67Z" transform="translate(-40.04 -5.36)"/><path class="cls-5" d="M97.28,252.79a10.46,10.46,0,0,1,0-1.12c0-.72.16-1.76.36-3a44.74,44.74,0,0,1,1-4.41,38.54,38.54,0,0,1,1.88-5.21,28.27,28.27,0,0,1,5.49-8.42,14.56,14.56,0,0,1,1.3-1.18c.19-.16.37-.32.55-.45l.5-.34a8.32,8.32,0,0,1,.94-.6,33.67,33.67,0,0,0-3.11,2.74,29.18,29.18,0,0,0-5.35,8.38,43.24,43.24,0,0,0-1.9,5.17c-.49,1.62-.82,3.11-1.08,4.38s-.38,2.28-.47,3A6.75,6.75,0,0,1,97.28,252.79Z" transform="translate(-40.04 -5.36)"/></g><g id="freepik--Server--inject-90"><path class="cls-5" d="M173.37,69.54c-.09,0-.17-7.16-.17-16s.08-16,.17-16,.17,7.16.17,16S173.47,69.54,173.37,69.54Z" transform="translate(-40.04 -5.36)"/><rect class="cls-5" x="224.75" y="172.99" width="73.38" height="80.51"/><rect class="cls-9" x="214.04" y="189.09" width="80.22" height="19.9"/><rect class="cls-5" x="217.6" y="193.19" width="15.8" height="2.43"/><rect class="cls-5" x="217.6" y="197.38" width="15.8" height="2.43"/><rect class="cls-5" x="217.6" y="201.7" width="15.8" height="2.43"/><path class="cls-5" d="M279.67,200a.91.91,0,0,1-1.81,0,.91.91,0,1,1,1.81,0Z" transform="translate(-40.04 -5.36)"/><path class="cls-5" d="M283.67,200a.91.91,0,0,1-1.81,0,.91.91,0,1,1,1.81,0Z" transform="translate(-40.04 -5.36)"/><path class="cls-5" d="M287.67,200a.91.91,0,1,1-.91-.91.9.9,0,0,1,.91.91Z" transform="translate(-40.04 -5.36)"/><path class="cls-5" d="M291.67,200a.91.91,0,1,1-.91-.91.9.9,0,0,1,.91.91Z" transform="translate(-40.04 -5.36)"/><path class="cls-5" d="M322.65,200a.91.91,0,0,1-1.81,0,.91.91,0,1,1,1.81,0Z" transform="translate(-40.04 -5.36)"/><path class="cls-5" d="M326.73,200a.91.91,0,1,1-.91-.91.9.9,0,0,1,.91.91Z" transform="translate(-40.04 -5.36)"/><path class="cls-5" d="M295.67,200a.91.91,0,1,1-.91-.91.9.9,0,0,1,.91.91Z" transform="translate(-40.04 -5.36)"/><path class="cls-5" d="M315.3,200a.91.91,0,0,1-1.81,0,.91.91,0,1,1,1.81,0Z" transform="translate(-40.04 -5.36)"/><path class="cls-3" d="M299.66,200a.91.91,0,0,1-1.81,0,.91.91,0,1,1,1.81,0Z" transform="translate(-40.04 -5.36)"/><path class="cls-3" d="M303.65,200a.91.91,0,1,1-.91-.91h0A.91.91,0,0,1,303.65,200Z" transform="translate(-40.04 -5.36)"/><path class="cls-3" d="M311.78,200a.91.91,0,1,1-.92-.91h0A.91.91,0,0,1,311.78,200Z" transform="translate(-40.04 -5.36)"/><path class="cls-3" d="M330.05,200a.91.91,0,1,1-.91-.91.9.9,0,0,1,.91.91Z" transform="translate(-40.04 -5.36)"/><path class="cls-6" d="M307.66,200a.91.91,0,0,1-.9.92.92.92,0,0,1,0-1.83h0a.9.9,0,0,1,.9.91Z" transform="translate(-40.04 -5.36)"/><path class="cls-6" d="M319.11,200a.91.91,0,0,1-1.81,0,.91.91,0,1,1,1.81,0Z" transform="translate(-40.04 -5.36)"/><path class="cls-5" d="M328.24,204.39a.91.91,0,1,1,.9.9.9.9,0,0,1-.9-.9Z" transform="translate(-40.04 -5.36)"/><path class="cls-5" d="M324.24,204.39a.9.9,0,0,1,.9-.92.92.92,0,0,1,.92.9.91.91,0,0,1-.91.92h0A.9.9,0,0,1,324.24,204.39Z" transform="translate(-40.04 -5.36)"/><path class="cls-5" d="M320.24,204.39a.91.91,0,1,1,.92.9h0a.9.9,0,0,1-.9-.9Z" transform="translate(-40.04 -5.36)"/><path class="cls-5" d="M316.24,204.39a.91.91,0,1,1,.92.9h0a.9.9,0,0,1-.9-.9Z" transform="translate(-40.04 -5.36)"/><path class="cls-5" d="M285.25,204.39a.92.92,0,1,1,.92.9h0a.9.9,0,0,1-.91-.9Z" transform="translate(-40.04 -5.36)"/><path class="cls-5" d="M281.18,204.39a.91.91,0,1,1,.9.9.9.9,0,0,1-.9-.9Z" transform="translate(-40.04 -5.36)"/><path class="cls-5" d="M312.24,204.39a.91.91,0,1,1,1.81,0,.91.91,0,0,1-1.81,0Z" transform="translate(-40.04 -5.36)"/><path class="cls-5" d="M292.59,204.39a.91.91,0,1,1,.9.9.9.9,0,0,1-.9-.9Z" transform="translate(-40.04 -5.36)"/><path class="cls-3" d="M308.24,204.39a.91.91,0,1,1,1.81,0,.91.91,0,0,1-1.81,0Z" transform="translate(-40.04 -5.36)"/><path class="cls-3" d="M304.25,204.39a.91.91,0,1,1,.9.9.9.9,0,0,1-.9-.9Z" transform="translate(-40.04 -5.36)"/><path class="cls-3" d="M296.13,204.39a.91.91,0,1,1,1.81,0,.91.91,0,0,1-1.81,0Z" transform="translate(-40.04 -5.36)"/><path class="cls-3" d="M277.86,204.39a.91.91,0,1,1,1.81,0,.91.91,0,0,1-1.81,0Z" transform="translate(-40.04 -5.36)"/><path class="cls-6" d="M300.25,204.39a.91.91,0,1,1,.9.9.9.9,0,0,1-.9-.9Z" transform="translate(-40.04 -5.36)"/><path class="cls-6" d="M288.8,204.39a.9.9,0,0,1,.9-.92.91.91,0,1,1,0,1.82h0A.9.9,0,0,1,288.8,204.39Z" transform="translate(-40.04 -5.36)"/><circle class="cls-5" cx="238.73" cy="202.91" r="0.91"/><circle class="cls-5" cx="242.73" cy="202.91" r="0.91"/><circle class="cls-5" cx="246.73" cy="202.91" r="0.91"/><circle class="cls-5" cx="250.72" cy="202.91" r="0.91"/><circle class="cls-5" cx="281.71" cy="202.91" r="0.91"/><circle class="cls-5" cx="285.79" cy="202.91" r="0.91"/><circle class="cls-5" cx="254.72" cy="202.91" r="0.91"/><path class="cls-5" d="M315.3,208.27a.91.91,0,0,1-1.81,0,.91.91,0,1,1,1.81,0Z" transform="translate(-40.04 -5.36)"/><circle class="cls-3" cx="258.72" cy="202.91" r="0.91"/><path class="cls-3" d="M303.65,208.27a.91.91,0,1,1-.91-.91h0A.91.91,0,0,1,303.65,208.27Z" transform="translate(-40.04 -5.36)"/><circle class="cls-3" cx="270.83" cy="202.91" r="0.91"/><path class="cls-3" d="M330.05,208.27a.91.91,0,1,1-.91-.91.9.9,0,0,1,.91.91Z" transform="translate(-40.04 -5.36)"/><circle class="cls-6" cx="266.72" cy="202.91" r="0.91"/><circle class="cls-6" cx="278.17" cy="202.91" r="0.91"/><rect class="cls-9" x="214.04" y="213.65" width="80.22" height="19.9"/><path class="cls-5" d="M279.47,224.38a.91.91,0,1,1-.9-.9.9.9,0,0,1,.9.9Z" transform="translate(-40.04 -5.36)"/><path class="cls-5" d="M283.47,224.38a.91.91,0,1,1-.9-.9.9.9,0,0,1,.9.9Z" transform="translate(-40.04 -5.36)"/><path class="cls-5" d="M287.47,224.38a.9.9,0,0,1-.9.92.92.92,0,0,1-.92-.91.91.91,0,0,1,.91-.91h0A.9.9,0,0,1,287.47,224.38Z" transform="translate(-40.04 -5.36)"/><path class="cls-5" d="M291.47,224.38a.91.91,0,1,1-.92-.9h0a.9.9,0,0,1,.9.9Z" transform="translate(-40.04 -5.36)"/><path class="cls-5" d="M322.46,224.38a.91.91,0,0,1-.91.92.91.91,0,1,1,0-1.82h0A.91.91,0,0,1,322.46,224.38Z" transform="translate(-40.04 -5.36)"/><path class="cls-5" d="M326.53,224.38a.91.91,0,1,1-.9-.9.9.9,0,0,1,.9.9Z" transform="translate(-40.04 -5.36)"/><path class="cls-5" d="M295.47,224.38a.91.91,0,1,1-1.82,0,.9.9,0,0,1,.9-.91h0a.9.9,0,0,1,.91.9Z" transform="translate(-40.04 -5.36)"/><path class="cls-5" d="M315.11,224.38a.91.91,0,0,1-.91.92.91.91,0,1,1,0-1.82h0a.9.9,0,0,1,.91.9Z" transform="translate(-40.04 -5.36)"/><path class="cls-3" d="M299.47,224.38a.91.91,0,1,1-1.81,0,.91.91,0,0,1,1.81,0Z" transform="translate(-40.04 -5.36)"/><path class="cls-3" d="M303.47,224.38a.91.91,0,1,1-1.81,0,.91.91,0,0,1,1.81,0Z" transform="translate(-40.04 -5.36)"/><path class="cls-3" d="M311.58,224.38a.91.91,0,1,1-1.81,0,.91.91,0,0,1,1.81,0Z" transform="translate(-40.04 -5.36)"/><path class="cls-3" d="M329.85,224.38a.91.91,0,1,1-1.81,0,.91.91,0,0,1,1.81,0Z" transform="translate(-40.04 -5.36)"/><path class="cls-6" d="M307.46,224.38a.91.91,0,1,1-.9-.9.9.9,0,0,1,.9.9Z" transform="translate(-40.04 -5.36)"/><path class="cls-6" d="M318.92,224.38a.92.92,0,1,1-.92-.9h0A.91.91,0,0,1,318.92,224.38Z" transform="translate(-40.04 -5.36)"/><path class="cls-5" d="M328,228.75a.91.91,0,0,1,1.81,0,.91.91,0,1,1-1.81,0Z" transform="translate(-40.04 -5.36)"/><path class="cls-5" d="M324,228.75a.91.91,0,0,1,1.81,0,.91.91,0,1,1-1.81,0Z" transform="translate(-40.04 -5.36)"/><path class="cls-5" d="M320,228.75a.91.91,0,1,1,.91.91A.93.93,0,0,1,320,228.75Z" transform="translate(-40.04 -5.36)"/><path class="cls-5" d="M316,228.75a.91.91,0,1,1,.91.91A.93.93,0,0,1,316,228.75Z" transform="translate(-40.04 -5.36)"/><path class="cls-5" d="M285.06,228.75a.91.91,0,0,1,1.81,0,.91.91,0,1,1-1.81,0Z" transform="translate(-40.04 -5.36)"/><path class="cls-5" d="M281,228.75a.91.91,0,1,1,.91.91A.93.93,0,0,1,281,228.75Z" transform="translate(-40.04 -5.36)"/><path class="cls-5" d="M312.05,228.75a.91.91,0,0,1,1.81,0,.91.91,0,1,1-1.81,0Z" transform="translate(-40.04 -5.36)"/><path class="cls-5" d="M292.41,228.75a.91.91,0,0,1,1.81,0,.91.91,0,1,1-1.81,0Z" transform="translate(-40.04 -5.36)"/><path class="cls-3" d="M308,228.75a.92.92,0,1,1,.92.91h0A.92.92,0,0,1,308,228.75Z" transform="translate(-40.04 -5.36)"/><path class="cls-3" d="M304,228.75a.92.92,0,1,1,.92.91h0A.93.93,0,0,1,304,228.75Z" transform="translate(-40.04 -5.36)"/><path class="cls-3" d="M295.93,228.75a.92.92,0,1,1,.92.91h0A.92.92,0,0,1,295.93,228.75Z" transform="translate(-40.04 -5.36)"/><path class="cls-3" d="M277.66,228.75a.91.91,0,1,1,.91.91A.93.93,0,0,1,277.66,228.75Z" transform="translate(-40.04 -5.36)"/><path class="cls-6" d="M300.05,228.75a.91.91,0,1,1,.92.91h0A.91.91,0,0,1,300.05,228.75Z" transform="translate(-40.04 -5.36)"/><path class="cls-6" d="M288.6,228.75a.91.91,0,1,1,.91.91A.92.92,0,0,1,288.6,228.75Z" transform="translate(-40.04 -5.36)"/><circle class="cls-5" cx="238.53" cy="227.27" r="0.91"/><circle class="cls-5" cx="242.53" cy="227.27" r="0.91"/><circle class="cls-5" cx="246.52" cy="227.27" r="0.91"/><circle class="cls-5" cx="250.53" cy="227.27" r="0.91"/><circle class="cls-5" cx="281.51" cy="227.27" r="0.91"/><circle class="cls-5" cx="285.59" cy="227.27" r="0.91"/><circle class="cls-5" cx="254.53" cy="227.27" r="0.91"/><circle class="cls-5" cx="274.16" cy="227.27" r="0.91"/><circle class="cls-3" cx="258.52" cy="227.27" r="0.91"/><circle class="cls-3" cx="262.52" cy="227.27" r="0.91"/><circle class="cls-3" cx="270.63" cy="227.27" r="0.91"/><path class="cls-3" d="M329.85,232.63a.91.91,0,1,1-1.81,0,.91.91,0,0,1,1.81,0Z" transform="translate(-40.04 -5.36)"/><circle class="cls-6" cx="266.52" cy="227.27" r="0.91"/><circle class="cls-6" cx="277.97" cy="227.27" r="0.91"/><rect class="cls-5" x="217.6" y="217.75" width="15.8" height="2.43"/><rect class="cls-5" x="217.6" y="221.93" width="15.8" height="2.43"/><rect class="cls-5" x="217.6" y="226.26" width="15.8" height="2.43"/><rect class="cls-9" x="214.04" y="238.21" width="80.22" height="19.9"/><rect class="cls-5" x="217.6" y="242.31" width="15.8" height="2.43"/><rect class="cls-5" x="217.6" y="246.49" width="15.8" height="2.43"/><rect class="cls-5" x="217.6" y="250.82" width="15.8" height="2.43"/><path class="cls-5" d="M279.19,248.94a.92.92,0,0,1-1.83,0,.91.91,0,0,1,.91-.91h0a.9.9,0,0,1,.91.9Z" transform="translate(-40.04 -5.36)"/><path class="cls-5" d="M283.18,248.94a.91.91,0,1,1-.9-.9.9.9,0,0,1,.9.9Z" transform="translate(-40.04 -5.36)"/><path class="cls-5" d="M287.18,248.94a.91.91,0,1,1-.9-.9.9.9,0,0,1,.9.9Z" transform="translate(-40.04 -5.36)"/><path class="cls-5" d="M291.18,248.94a.91.91,0,1,1-1.81,0,.91.91,0,0,1,1.81,0Z" transform="translate(-40.04 -5.36)"/><path class="cls-5" d="M322.16,248.94a.91.91,0,1,1-.9-.9.9.9,0,0,1,.9.9Z" transform="translate(-40.04 -5.36)"/><path class="cls-5" d="M326.24,248.94a.91.91,0,1,1-.9-.9.9.9,0,0,1,.9.9Z" transform="translate(-40.04 -5.36)"/><path class="cls-5" d="M295.19,248.94a.91.91,0,1,1-.9-.9.91.91,0,0,1,.9.9Z" transform="translate(-40.04 -5.36)"/><path class="cls-5" d="M314.81,248.94a.91.91,0,1,1-.9-.9.9.9,0,0,1,.9.9Z" transform="translate(-40.04 -5.36)"/><path class="cls-3" d="M299.17,248.94a.91.91,0,1,1-.9-.9.9.9,0,0,1,.9.9Z" transform="translate(-40.04 -5.36)"/><path class="cls-3" d="M303.17,248.94a.91.91,0,1,1-.9-.9.9.9,0,0,1,.9.9Z" transform="translate(-40.04 -5.36)"/><path class="cls-3" d="M311.28,248.94a.91.91,0,1,1-.9-.9.9.9,0,0,1,.9.9Z" transform="translate(-40.04 -5.36)"/><path class="cls-3" d="M329.56,248.94a.91.91,0,1,1-1.82,0,.9.9,0,0,1,.9-.91h0a.9.9,0,0,1,.9.9Z" transform="translate(-40.04 -5.36)"/><path class="cls-6" d="M307.18,248.94a.92.92,0,1,1-.92-.9h0A.91.91,0,0,1,307.18,248.94Z" transform="translate(-40.04 -5.36)"/><path class="cls-6" d="M318.63,248.94a.91.91,0,1,1-1.81,0,.91.91,0,0,1,1.81,0Z" transform="translate(-40.04 -5.36)"/><path class="cls-5" d="M327.74,253.29a.92.92,0,1,1,.92.91h0A.93.93,0,0,1,327.74,253.29Z" transform="translate(-40.04 -5.36)"/><path class="cls-5" d="M323.75,253.29a.91.91,0,1,1,.91.91h0a.9.9,0,0,1-.9-.91Z" transform="translate(-40.04 -5.36)"/><path class="cls-5" d="M319.75,253.29a.91.91,0,0,1,1.81,0,.91.91,0,1,1-1.81,0Z" transform="translate(-40.04 -5.36)"/><path class="cls-5" d="M315.75,253.29a.91.91,0,1,1,.91.91.9.9,0,0,1-.91-.91Z" transform="translate(-40.04 -5.36)"/><path class="cls-5" d="M284.77,253.29a.91.91,0,1,1,.91.91.9.9,0,0,1-.91-.91Z" transform="translate(-40.04 -5.36)"/><path class="cls-5" d="M280.69,253.29a.91.91,0,1,1,.91.91.9.9,0,0,1-.91-.91Z" transform="translate(-40.04 -5.36)"/><path class="cls-5" d="M311.75,253.29a.91.91,0,1,1,.91.91.9.9,0,0,1-.91-.91Z" transform="translate(-40.04 -5.36)"/><path class="cls-5" d="M292.12,253.29a.91.91,0,0,1,1.81,0,.91.91,0,1,1-1.81,0Z" transform="translate(-40.04 -5.36)"/><path class="cls-3" d="M307.76,253.29a.91.91,0,0,1,1.81,0,.91.91,0,1,1-1.81,0Z" transform="translate(-40.04 -5.36)"/><path class="cls-3" d="M303.76,253.29a.91.91,0,0,1,1.81,0,.91.91,0,1,1-1.81,0Z" transform="translate(-40.04 -5.36)"/><path class="cls-3" d="M295.65,253.29a.91.91,0,0,1,1.81,0,.91.91,0,1,1-1.81,0Z" transform="translate(-40.04 -5.36)"/><path class="cls-3" d="M277.37,253.29a.92.92,0,0,1,.9-.92.92.92,0,0,1,0,1.83h0A.91.91,0,0,1,277.37,253.29Z" transform="translate(-40.04 -5.36)"/><path class="cls-6" d="M299.75,253.29a.91.91,0,0,1,1.81,0,.91.91,0,1,1-1.81,0Z" transform="translate(-40.04 -5.36)"/><path class="cls-6" d="M288.31,253.29a.91.91,0,1,1,.92.91h0a.9.9,0,0,1-.9-.91Z" transform="translate(-40.04 -5.36)"/><path class="cls-5" d="M279.19,257.2a.92.92,0,0,1-1.83,0,.92.92,0,0,1,1.83,0Z" transform="translate(-40.04 -5.36)"/><path class="cls-5" d="M283.18,257.2a.91.91,0,0,1-1.81,0,.91.91,0,1,1,1.81,0Z" transform="translate(-40.04 -5.36)"/><path class="cls-5" d="M287.18,257.2a.91.91,0,0,1-1.81,0,.91.91,0,1,1,1.81,0Z" transform="translate(-40.04 -5.36)"/><path class="cls-5" d="M291.18,257.2a.91.91,0,1,1-.91-.91A.92.92,0,0,1,291.18,257.2Z" transform="translate(-40.04 -5.36)"/><path class="cls-5" d="M322.16,257.2a.89.89,0,0,1-.91.89.9.9,0,0,1,0-1.8.89.89,0,0,1,.93.89Z" transform="translate(-40.04 -5.36)"/><path class="cls-5" d="M326.24,257.2a.91.91,0,0,1-1.81,0,.91.91,0,1,1,1.81,0Z" transform="translate(-40.04 -5.36)"/><path class="cls-5" d="M295.19,257.2a.91.91,0,0,1-1.81,0,.91.91,0,1,1,1.81,0Z" transform="translate(-40.04 -5.36)"/><path class="cls-5" d="M314.81,257.2a.91.91,0,0,1-1.81,0,.91.91,0,1,1,1.81,0Z" transform="translate(-40.04 -5.36)"/><path class="cls-3" d="M299.17,257.2a.91.91,0,0,1-1.81,0,.91.91,0,1,1,1.81,0Z" transform="translate(-40.04 -5.36)"/><path class="cls-3" d="M303.17,257.2a.91.91,0,0,1-1.81,0,.91.91,0,1,1,1.81,0Z" transform="translate(-40.04 -5.36)"/><path class="cls-3" d="M311.28,257.2a.91.91,0,0,1-1.81,0,.91.91,0,1,1,1.81,0Z" transform="translate(-40.04 -5.36)"/><path class="cls-3" d="M329.56,257.2a.91.91,0,1,1-.92-.91h0A.92.92,0,0,1,329.56,257.2Z" transform="translate(-40.04 -5.36)"/><path class="cls-6" d="M307.18,257.2a.92.92,0,0,1-1.83,0,.93.93,0,0,1,.91-.92h0A.92.92,0,0,1,307.18,257.2Z" transform="translate(-40.04 -5.36)"/><path class="cls-6" d="M318.63,257.2a.91.91,0,1,1-.91-.91A.92.92,0,0,1,318.63,257.2Z" transform="translate(-40.04 -5.36)"/><polygon class="cls-5" points="306.31 208.97 294.25 209 294.25 189.09 306.31 189.06 306.31 208.97"/><polygon class="cls-5" points="306.31 184.76 294.25 184.8 294.25 164.89 306.31 164.86 306.31 184.76"/><polygon class="cls-5" points="306.31 233.37 294.25 233.4 294.25 213.5 306.31 213.46 306.31 233.37"/><polygon class="cls-5" points="306.31 258.08 294.25 258.12 294.25 238.21 306.31 238.18 306.31 258.08"/><rect class="cls-9" x="214.62" y="164.71" width="80.22" height="19.9"/><rect class="cls-5" x="218.18" y="168.81" width="15.8" height="2.43"/><rect class="cls-5" x="218.18" y="172.99" width="15.8" height="2.43"/><rect class="cls-5" x="218.18" y="177.32" width="15.8" height="2.43"/><path class="cls-5" d="M280.25,175.63a.91.91,0,1,1-.9-.9.9.9,0,0,1,.9.9Z" transform="translate(-40.04 -5.36)"/><path class="cls-5" d="M284.25,175.63a.91.91,0,1,1-.9-.9.9.9,0,0,1,.9.9Z" transform="translate(-40.04 -5.36)"/><path class="cls-5" d="M288.25,175.63a.91.91,0,1,1-1.81,0,.91.91,0,0,1,1.81,0Z" transform="translate(-40.04 -5.36)"/><path class="cls-5" d="M292.25,175.63a.91.91,0,1,1-1.81,0,.91.91,0,0,1,1.81,0Z" transform="translate(-40.04 -5.36)"/><path class="cls-5" d="M323.23,175.63a.91.91,0,1,1-.9-.9.9.9,0,0,1,.9.9Z" transform="translate(-40.04 -5.36)"/><path class="cls-5" d="M327.31,175.63a.9.9,0,0,1-.9.92.91.91,0,1,1,0-1.82h0A.9.9,0,0,1,327.31,175.63Z" transform="translate(-40.04 -5.36)"/><path class="cls-5" d="M296.25,175.63a.91.91,0,1,1-.92-.9h0A.9.9,0,0,1,296.25,175.63Z" transform="translate(-40.04 -5.36)"/><path class="cls-5" d="M315.88,175.63a.91.91,0,1,1-.9-.9.9.9,0,0,1,.9.9Z" transform="translate(-40.04 -5.36)"/><path class="cls-3" d="M300.25,175.63a.91.91,0,0,1-.91.92.91.91,0,0,1,0-1.82h0A.9.9,0,0,1,300.25,175.63Z" transform="translate(-40.04 -5.36)"/><path class="cls-3" d="M304.25,175.63a.92.92,0,1,1-.92-.9h0a.9.9,0,0,1,.91.9Z" transform="translate(-40.04 -5.36)"/><path class="cls-3" d="M312.36,175.63a.91.91,0,0,1-.91.92.91.91,0,0,1,0-1.82h0a.9.9,0,0,1,.91.9Z" transform="translate(-40.04 -5.36)"/><path class="cls-3" d="M330.63,175.63a.91.91,0,1,1-1.81,0,.91.91,0,0,1,1.81,0Z" transform="translate(-40.04 -5.36)"/><path class="cls-6" d="M308.24,175.63a.91.91,0,1,1-.9-.9.9.9,0,0,1,.9.9Z" transform="translate(-40.04 -5.36)"/><path class="cls-6" d="M319.69,175.63a.91.91,0,1,1-.9-.9.9.9,0,0,1,.9.9Z" transform="translate(-40.04 -5.36)"/><path class="cls-5" d="M328.82,180a.91.91,0,0,1,1.81,0,.91.91,0,1,1-1.81,0Z" transform="translate(-40.04 -5.36)"/><path class="cls-5" d="M324.82,180a.91.91,0,1,1,.91.91A.9.9,0,0,1,324.82,180Z" transform="translate(-40.04 -5.36)"/><path class="cls-5" d="M320.82,180a.91.91,0,1,1,.91.91A.92.92,0,0,1,320.82,180Z" transform="translate(-40.04 -5.36)"/><path class="cls-5" d="M316.82,180a.91.91,0,1,1,.92.91h0A.91.91,0,0,1,316.82,180Z" transform="translate(-40.04 -5.36)"/><path class="cls-5" d="M285.84,180a.91.91,0,1,1,.91.91A.9.9,0,0,1,285.84,180Z" transform="translate(-40.04 -5.36)"/><path class="cls-5" d="M281.76,180a.91.91,0,0,1,1.82,0,.92.92,0,0,1-.9.92h0A.9.9,0,0,1,281.76,180Z" transform="translate(-40.04 -5.36)"/><path class="cls-5" d="M312.82,180a.91.91,0,1,1,.92.91h0A.92.92,0,0,1,312.82,180Z" transform="translate(-40.04 -5.36)"/><path class="cls-5" d="M293.18,180a.92.92,0,1,1,.92.91h0A.92.92,0,0,1,293.18,180Z" transform="translate(-40.04 -5.36)"/><path class="cls-3" d="M308.82,180a.91.91,0,1,1,.91.91A.92.92,0,0,1,308.82,180Z" transform="translate(-40.04 -5.36)"/><path class="cls-3" d="M304.83,180a.91.91,0,0,1,1.81,0,.91.91,0,1,1-1.81,0Z" transform="translate(-40.04 -5.36)"/><path class="cls-3" d="M296.71,180a.91.91,0,1,1,.91.91A.92.92,0,0,1,296.71,180Z" transform="translate(-40.04 -5.36)"/><path class="cls-3" d="M278.44,180a.91.91,0,1,1,.91.91A.92.92,0,0,1,278.44,180Z" transform="translate(-40.04 -5.36)"/><path class="cls-6" d="M300.83,180a.91.91,0,0,1,1.81,0,.91.91,0,1,1-1.81,0Z" transform="translate(-40.04 -5.36)"/><path class="cls-6" d="M289.38,180a.91.91,0,1,1,.91.91A.92.92,0,0,1,289.38,180Z" transform="translate(-40.04 -5.36)"/><path class="cls-5" d="M280.25,183.88a.91.91,0,1,1-.9-.9.9.9,0,0,1,.9.9Z" transform="translate(-40.04 -5.36)"/><path class="cls-5" d="M284.25,183.88a.91.91,0,1,1-.9-.9.9.9,0,0,1,.9.9Z" transform="translate(-40.04 -5.36)"/><path class="cls-5" d="M288.25,183.88a.91.91,0,1,1-.9-.91h0A.91.91,0,0,1,288.25,183.88Z" transform="translate(-40.04 -5.36)"/><path class="cls-5" d="M292.25,183.88a.91.91,0,1,1-1.81,0,.91.91,0,0,1,1.81,0Z" transform="translate(-40.04 -5.36)"/><path class="cls-5" d="M323.23,183.88a.91.91,0,1,1-.9-.9.9.9,0,0,1,.9.9Z" transform="translate(-40.04 -5.36)"/><path class="cls-5" d="M327.31,183.88a.9.9,0,0,1-.9.92.91.91,0,1,1,0-1.82h0A.9.9,0,0,1,327.31,183.88Z" transform="translate(-40.04 -5.36)"/><path class="cls-5" d="M296.25,183.88a.91.91,0,1,1-.92-.9h0A.9.9,0,0,1,296.25,183.88Z" transform="translate(-40.04 -5.36)"/><path class="cls-5" d="M315.88,183.88a.91.91,0,1,1-.9-.9.9.9,0,0,1,.9.9Z" transform="translate(-40.04 -5.36)"/><path class="cls-3" d="M300.25,183.88a.91.91,0,0,1-.91.92.91.91,0,0,1,0-1.82h0A.9.9,0,0,1,300.25,183.88Z" transform="translate(-40.04 -5.36)"/><path class="cls-3" d="M304.25,183.88a.92.92,0,1,1-.92-.9h0a.9.9,0,0,1,.91.9Z" transform="translate(-40.04 -5.36)"/><path class="cls-3" d="M312.36,183.88a.91.91,0,1,1-.91-.91h0A.92.92,0,0,1,312.36,183.88Z" transform="translate(-40.04 -5.36)"/><path class="cls-3" d="M330.63,183.88a.91.91,0,1,1-.93-.91.9.9,0,0,1,.93.91Z" transform="translate(-40.04 -5.36)"/><path class="cls-6" d="M308.24,183.88a.91.91,0,1,1-.9-.9.9.9,0,0,1,.9.9Z" transform="translate(-40.04 -5.36)"/><path class="cls-6" d="M319.69,183.88a.91.91,0,1,1-.9-.9.9.9,0,0,1,.9.9Z" transform="translate(-40.04 -5.36)"/><path class="cls-5" d="M202.81,27.36H213l27.82-.05,91.74,0a20.35,20.35,0,0,1,6.62,1,18.69,18.69,0,0,1,5.8,3.19,19.11,19.11,0,0,1,6.64,10.88,31.52,31.52,0,0,1,.38,6.29V66.71c0,15.52,0,29.5,0,41.24v12.23a7.86,7.86,0,0,1-.75,3.54,7.35,7.35,0,0,1-4.91,4,11.06,11.06,0,0,1-2.87.22h0a11.31,11.31,0,0,0,2.84-.22,7.14,7.14,0,0,0,4.77-4,7.56,7.56,0,0,0,.66-3.48V48.76a31.71,31.71,0,0,0-.37-6.23,18.81,18.81,0,0,0-6.51-10.7,18,18,0,0,0-5.69-3.13,20,20,0,0,0-6.51-1l-91.75,0L213,27.6h-9.51Z" transform="translate(-40.04 -5.36)"/><rect class="cls-1" x="97.11" y="65.07" width="62.9" height="192.69"/><polygon class="cls-2" points="209.63 257.76 160.01 257.76 159.92 65.07 209.63 65.07 209.63 257.76"/><rect class="cls-5" x="100.58" y="95.91" width="53.36" height="15.02"/><rect class="cls-9" x="102.07" y="97.8" width="2.99" height="11.5"/><path class="cls-8" d="M148.62,105.57a.95.95,0,1,1-1.9,0,1,1,0,0,1,.95-.95h0A1,1,0,0,1,148.62,105.57Z" transform="translate(-40.04 -5.36)"/><path class="cls-8" d="M148.62,109.63a1,1,0,0,1-1.9,0,1,1,0,0,1,.95-.95h0A1,1,0,0,1,148.62,109.63Z" transform="translate(-40.04 -5.36)"/><rect class="cls-9" x="112.38" y="99.26" width="2.94" height="8.83"/><rect class="cls-9" x="116.62" y="99.26" width="2.94" height="8.83"/><rect class="cls-9" x="120.86" y="99.26" width="2.94" height="8.83"/><rect class="cls-9" x="125.1" y="99.26" width="2.94" height="8.83"/><rect class="cls-9" x="129.34" y="99.26" width="2.94" height="8.83"/><rect class="cls-9" x="133.59" y="99.26" width="2.94" height="8.83"/><rect class="cls-9" x="137.83" y="99.26" width="2.94" height="8.83"/><rect class="cls-9" x="142.06" y="99.26" width="2.94" height="8.83"/><rect class="cls-9" x="146.31" y="99.26" width="2.94" height="8.83"/><rect class="cls-9" x="150.55" y="99.26" width="2.94" height="8.83"/><rect class="cls-5" x="100.58" y="117.49" width="53.36" height="15.02"/><rect class="cls-9" x="102.07" y="119.38" width="2.99" height="11.5"/><path class="cls-8" d="M148.62,127.15a.95.95,0,1,1-1-1h0A1,1,0,0,1,148.62,127.15Z" transform="translate(-40.04 -5.36)"/><path class="cls-8" d="M148.62,131.22a.95.95,0,1,1-1-.95h0A.94.94,0,0,1,148.62,131.22Z" transform="translate(-40.04 -5.36)"/><rect class="cls-9" x="112.38" y="120.85" width="2.94" height="8.83"/><rect class="cls-9" x="116.62" y="120.85" width="2.94" height="8.83"/><rect class="cls-9" x="120.86" y="120.85" width="2.94" height="8.83"/><rect class="cls-9" x="125.1" y="120.85" width="2.94" height="8.83"/><rect class="cls-9" x="129.34" y="120.85" width="2.94" height="8.83"/><rect class="cls-9" x="133.59" y="120.85" width="2.94" height="8.83"/><rect class="cls-9" x="137.83" y="120.85" width="2.94" height="8.83"/><rect class="cls-9" x="142.06" y="120.85" width="2.94" height="8.83"/><rect class="cls-9" x="146.31" y="120.85" width="2.94" height="8.83"/><rect class="cls-9" x="150.55" y="120.85" width="2.94" height="8.83"/><rect class="cls-5" x="100.58" y="139.24" width="53.36" height="15.02"/><rect class="cls-9" x="102.07" y="141.13" width="2.99" height="11.5"/><path class="cls-8" d="M148.62,148.91a.95.95,0,1,1-1-.95h0A.94.94,0,0,1,148.62,148.91Z" transform="translate(-40.04 -5.36)"/><path class="cls-8" d="M148.62,153a1,1,0,1,1-1.9,0,1,1,0,0,1,.95-.95h0A1,1,0,0,1,148.62,153Z" transform="translate(-40.04 -5.36)"/><rect class="cls-9" x="112.38" y="142.6" width="2.94" height="8.83"/><rect class="cls-9" x="116.62" y="142.6" width="2.94" height="8.83"/><rect class="cls-9" x="120.86" y="142.6" width="2.94" height="8.83"/><rect class="cls-9" x="125.1" y="142.6" width="2.94" height="8.83"/><rect class="cls-9" x="129.34" y="142.6" width="2.94" height="8.83"/><rect class="cls-9" x="133.59" y="142.6" width="2.94" height="8.83"/><rect class="cls-9" x="137.83" y="142.6" width="2.94" height="8.83"/><rect class="cls-9" x="142.06" y="142.6" width="2.94" height="8.83"/><rect class="cls-9" x="146.31" y="142.6" width="2.94" height="8.83"/><rect class="cls-9" x="150.55" y="142.6" width="2.94" height="8.83"/><rect class="cls-5" x="100.58" y="162.74" width="53.36" height="15.02"/><rect class="cls-9" x="102.07" y="164.63" width="2.99" height="11.5"/><path class="cls-8" d="M148.62,172.41a1,1,0,1,1-1-1h0A1,1,0,0,1,148.62,172.41Z" transform="translate(-40.04 -5.36)"/><path class="cls-8" d="M148.62,176.46a.95.95,0,0,1-1.9,0,1,1,0,0,1,.95-1h0A1,1,0,0,1,148.62,176.46Z" transform="translate(-40.04 -5.36)"/><rect class="cls-9" x="112.38" y="166.1" width="2.94" height="8.83"/><rect class="cls-9" x="116.62" y="166.1" width="2.94" height="8.83"/><rect class="cls-9" x="120.86" y="166.1" width="2.94" height="8.83"/><rect class="cls-9" x="125.1" y="166.1" width="2.94" height="8.83"/><rect class="cls-9" x="129.34" y="166.1" width="2.94" height="8.83"/><rect class="cls-9" x="133.59" y="166.1" width="2.94" height="8.83"/><rect class="cls-9" x="137.83" y="166.1" width="2.94" height="8.83"/><rect class="cls-9" x="142.06" y="166.1" width="2.94" height="8.83"/><rect class="cls-9" x="146.31" y="166.1" width="2.94" height="8.83"/><rect class="cls-9" x="150.55" y="166.1" width="2.94" height="8.83"/><rect class="cls-5" x="100.58" y="186.48" width="53.36" height="15.02"/><rect class="cls-9" x="102.07" y="188.36" width="2.99" height="11.5"/><path class="cls-8" d="M148.62,196.14a.95.95,0,1,1-1-.95h0A.94.94,0,0,1,148.62,196.14Z" transform="translate(-40.04 -5.36)"/><path class="cls-8" d="M148.62,200.2a.95.95,0,1,1-1.9,0,1,1,0,0,1,.95-.95h0A1,1,0,0,1,148.62,200.2Z" transform="translate(-40.04 -5.36)"/><rect class="cls-9" x="112.38" y="189.83" width="2.94" height="8.83"/><rect class="cls-9" x="116.62" y="189.83" width="2.94" height="8.83"/><rect class="cls-9" x="120.86" y="189.83" width="2.94" height="8.83"/><rect class="cls-9" x="125.1" y="189.83" width="2.94" height="8.83"/><rect class="cls-9" x="129.34" y="189.83" width="2.94" height="8.83"/><rect class="cls-9" x="133.59" y="189.83" width="2.94" height="8.83"/><rect class="cls-9" x="137.83" y="189.83" width="2.94" height="8.83"/><rect class="cls-9" x="142.06" y="189.83" width="2.94" height="8.83"/><rect class="cls-9" x="146.31" y="189.83" width="2.94" height="8.83"/><rect class="cls-9" x="150.55" y="189.83" width="2.94" height="8.83"/><rect class="cls-5" x="100.58" y="233.71" width="53.36" height="15.02"/><rect class="cls-9" x="102.07" y="235.59" width="2.99" height="11.5"/><path class="cls-8" d="M148.62,243.37a.95.95,0,1,1-1-1h0A.94.94,0,0,1,148.62,243.37Z" transform="translate(-40.04 -5.36)"/><path class="cls-8" d="M148.62,247.43a.95.95,0,0,1-1.9,0,1,1,0,0,1,.95-1h0A1,1,0,0,1,148.62,247.43Z" transform="translate(-40.04 -5.36)"/><rect class="cls-9" x="112.38" y="237.06" width="2.94" height="8.83"/><rect class="cls-9" x="116.62" y="237.06" width="2.94" height="8.83"/><rect class="cls-9" x="120.86" y="237.06" width="2.94" height="8.83"/><rect class="cls-9" x="125.1" y="237.06" width="2.94" height="8.83"/><rect class="cls-9" x="129.34" y="237.06" width="2.94" height="8.83"/><rect class="cls-9" x="133.59" y="237.06" width="2.94" height="8.83"/><rect class="cls-9" x="137.83" y="237.06" width="2.94" height="8.83"/><rect class="cls-9" x="142.06" y="237.06" width="2.94" height="8.83"/><rect class="cls-9" x="146.31" y="237.06" width="2.94" height="8.83"/><rect class="cls-9" x="150.55" y="237.06" width="2.94" height="8.83"/><rect class="cls-5" x="100.58" y="210.11" width="53.36" height="15.02"/><rect class="cls-9" x="102.07" y="212" width="2.99" height="11.5"/><path class="cls-8" d="M148.62,219.77a.95.95,0,0,1-1.9,0,1,1,0,0,1,.95-1h0A1,1,0,0,1,148.62,219.77Z" transform="translate(-40.04 -5.36)"/><path class="cls-8" d="M148.62,223.83a.95.95,0,1,1-1-1h0A1,1,0,0,1,148.62,223.83Z" transform="translate(-40.04 -5.36)"/><rect class="cls-9" x="112.38" y="213.46" width="2.94" height="8.83"/><rect class="cls-9" x="116.62" y="213.46" width="2.94" height="8.83"/><rect class="cls-9" x="120.86" y="213.46" width="2.94" height="8.83"/><rect class="cls-9" x="125.1" y="213.46" width="2.94" height="8.83"/><rect class="cls-9" x="129.34" y="213.46" width="2.94" height="8.83"/><rect class="cls-9" x="133.59" y="213.46" width="2.94" height="8.83"/><rect class="cls-9" x="137.83" y="213.46" width="2.94" height="8.83"/><rect class="cls-9" x="142.06" y="213.46" width="2.94" height="8.83"/><rect class="cls-9" x="146.31" y="213.46" width="2.94" height="8.83"/><rect class="cls-9" x="150.55" y="213.46" width="2.94" height="8.83"/><path class="cls-5" d="M173.63,101.27a1.89,1.89,0,0,1-.06-.47c0-.3,0-.76-.06-1.3s0-1.31,0-2.11a14.11,14.11,0,0,0-.37-2.74,10,10,0,0,0-1.42-3,6.81,6.81,0,0,0-2.93-2.35,14.38,14.38,0,0,0-4.15-.84l-4.59-.4c-6.3-.55-12-.89-16.16-1-2.07,0-3.74,0-4.9,0h-1.3a1.77,1.77,0,0,1-.46,0,2.31,2.31,0,0,1,.46,0l1.3-.08c1.16,0,2.84-.1,4.92-.08,4.14,0,9.87.32,16.17.87l4.6.41a14.31,14.31,0,0,1,4.24.88,6.93,6.93,0,0,1,3,2.48,10.06,10.06,0,0,1,1.43,3.1,13.21,13.21,0,0,1,.32,2.8v3.41A2.26,2.26,0,0,1,173.63,101.27Z" transform="translate(-40.04 -5.36)"/><path class="cls-5" d="M157.44,101.27a1.71,1.71,0,0,1,0-.45V99.57c0-.51,0-1.21-.07-1.95a6.08,6.08,0,0,0-.65-2.47,4.7,4.7,0,0,0-2.41-1.86,6.58,6.58,0,0,0-3.51-.36,5.86,5.86,0,0,0-1.82.62,3.46,3.46,0,0,0-1.41,1.3,1.93,1.93,0,0,0,0,1.89,2.59,2.59,0,0,0,1.6,1.2,2,2,0,0,0,1.88-.55,2.68,2.68,0,0,0,.28-3.62,3.91,3.91,0,0,0-1.41-1.24,5.45,5.45,0,0,0-1.77-.46c-.6-.09-1.18-.17-1.75-.23-1.14-.12-2.2-.2-3.17-.23-1.95-.08-3.52,0-4.61,0h-1.26a1.55,1.55,0,0,1-.43,0,2.1,2.1,0,0,1,.43,0l1.25-.05c1.1,0,2.67-.12,4.63-.07a31.17,31.17,0,0,1,3.19.2c.57,0,1.16.13,1.77.22.3,0,.6.08.92.14a3.89,3.89,0,0,1,.94.33,4.22,4.22,0,0,1,1.54,1.34,3.07,3.07,0,0,1,.65,2,3.12,3.12,0,0,1-1,2,2.37,2.37,0,0,1-2.18.65A2.84,2.84,0,0,1,147.23,97a2.21,2.21,0,0,1,0-2.2,3.73,3.73,0,0,1,1.54-1.46,6.23,6.23,0,0,1,1.92-.65,6.81,6.81,0,0,1,3.68.4,5,5,0,0,1,2.51,2,6.06,6.06,0,0,1,.65,2.6c.05.78,0,1.45,0,2s0,.93-.05,1.25C157.47,101,157.46,101.14,157.44,101.27Z" transform="translate(-40.04 -5.36)"/><path class="cls-5" d="M178,101.27a3,3,0,0,1-.11-.5c-.06-.33-.15-.81-.28-1.43A26.76,26.76,0,0,0,176,94.25,14.83,14.83,0,0,0,171.39,88a8.76,8.76,0,0,0-4.26-1.62,41.77,41.77,0,0,0-5-.27c-6.9-.13-13.15-.1-17.67-.28-2.26-.08-4.09-.18-5.35-.27l-1.45-.12a2.74,2.74,0,0,1-.5-.07h.47l1.45.06c1.26,0,3.09.11,5.35.16,4.52.12,10.76,0,17.66.18a42.5,42.5,0,0,1,5,.28,9,9,0,0,1,4.4,1.7,13.54,13.54,0,0,1,2.93,3.11,18.17,18.17,0,0,1,1.75,3.25,25.57,25.57,0,0,1,1.47,5.16c.12.65.19,1.11.22,1.44A3.35,3.35,0,0,1,178,101.27Z" transform="translate(-40.04 -5.36)"/><rect class="cls-5" x="101.32" y="67.46" width="51.89" height="7.53"/><rect class="cls-9" x="112.73" y="71.23" width="28.25" height="3.76"/><path class="cls-5" d="M214.45,229.05s-.57.1-1.56.38a13.82,13.82,0,0,0-3.91,1.92,10.72,10.72,0,0,0-2.2,2.05,7.15,7.15,0,0,0-.91,1.4,9.11,9.11,0,0,0-.56,1.67,28.72,28.72,0,0,0-.3,7.95,16.74,16.74,0,0,1-1.19,7.93,8.74,8.74,0,0,1-2.11,2.83,10.24,10.24,0,0,1-5,2.37,8.13,8.13,0,0,1-1.91.08,5.37,5.37,0,0,1-1.19-.19,2.08,2.08,0,0,1-.41-.11c0-.05.57.13,1.61.17a9.06,9.06,0,0,0,1.87-.13,10.37,10.37,0,0,0,4.88-2.4,8.6,8.6,0,0,0,2-2.76,16.47,16.47,0,0,0,1.13-7.78,28.72,28.72,0,0,1,.33-8,9.51,9.51,0,0,1,.61-1.72,7.71,7.71,0,0,1,.95-1.45,11.17,11.17,0,0,1,2.28-2.06,12.9,12.9,0,0,1,4-1.85,9.83,9.83,0,0,1,1.18-.23Z" transform="translate(-40.04 -5.36)"/><rect class="cls-5" x="150.46" y="249.64" width="4.26" height="5.18"/><rect class="cls-9" x="174.38" y="210.61" width="23.89" height="26.17"/><circle class="cls-5" cx="186.31" cy="223.77" r="7.87"/><path class="cls-9" d="M230.3,229.15a3.91,3.91,0,1,1-3.91-3.9A3.91,3.91,0,0,1,230.3,229.15Z" transform="translate(-40.04 -5.36)"/><circle class="cls-5" cx="177.61" cy="214.67" r="0.73"/><circle class="cls-5" cx="194.61" cy="214.67" r="0.73"/><path class="cls-5" d="M235.54,239.36a.73.73,0,0,1-.73.74.74.74,0,1,1,0-1.47h0A.73.73,0,0,1,235.54,239.36Z" transform="translate(-40.04 -5.36)"/><circle class="cls-5" cx="177.61" cy="234.3" r="0.73"/><rect class="cls-5" x="198.27" y="210.61" width="1.93" height="26.17"/><path class="cls-6" d="M209.25,41.41c2.35-5.51.92-11.25-2.95-15.82a16.6,16.6,0,0,0-16.23-5.26,18.15,18.15,0,0,0-36,2.34A13.58,13.58,0,0,0,143.7,41.1Z" transform="translate(-40.04 -5.36)"/><path class="cls-5" d="M344.93,181.94h.89l2.6,0a14.1,14.1,0,0,0,4.09-.48,12.52,12.52,0,0,0,8.46-7.85,13.64,13.64,0,0,0,.51-1.73,14.37,14.37,0,0,0,.22-1.85c.07-1.25,0-2.6,0-3.9V144a18.31,18.31,0,0,0-.08-2.22,9.42,9.42,0,0,0-.51-2.11,10.08,10.08,0,0,0-5.52-5.86c-2.45-1.13-5.09-.75-7.47-.85l-6.66-.07-9.64-.12-2.6,0h22.61a10.15,10.15,0,0,1,3.91.82,10.44,10.44,0,0,1,5.71,6.07,9.49,9.49,0,0,1,.52,2.18,19,19,0,0,1,.1,2.26v22.11c0,1.35,0,2.65-.05,3.94a15.26,15.26,0,0,1-.24,1.89,13.78,13.78,0,0,1-.52,1.77,12.74,12.74,0,0,1-8.72,7.94,14.37,14.37,0,0,1-4.13.42h-3.25A.9.9,0,0,1,344.93,181.94Z" transform="translate(-40.04 -5.36)"/><polygon class="cls-8" points="131.25 35.86 131.25 26.63 126.63 26.63 133.59 16.81 140.55 26.57 136.01 26.57 136.01 35.86 131.25 35.86"/></g><g id="freepik--Character--inject-90"><polygon class="cls-2" points="237.19 155.49 242.11 161.91 251.47 157.77 245.48 148.17 237.19 155.49"/><polygon class="cls-9" points="240.11 156.25 240.25 159.42 243.35 160.88 243.19 157.62 240.11 156.25"/><polygon class="cls-9" points="243.04 154.47 243.19 157.65 246.29 159.1 246.13 155.84 243.04 154.47"/><polygon class="cls-9" points="246.03 152.7 246.18 155.88 249.28 157.32 249.12 154.07 246.03 152.7"/><path class="cls-6" d="M291.88,163l-1.07-1.63-9.17,5.8,2.16,3.62.6-.3c2.67-1.35,13.46-7.09,14.89-8.62C300.87,160.18,291.88,163,291.88,163Z" transform="translate(-40.04 -5.36)"/><g class="cls-10"><path class="cls-8" d="M287.15,168.75a3.77,3.77,0,0,0-2.32-1.4,3.16,3.16,0,0,0-2.66.69l1.56,2.61Z" transform="translate(-40.04 -5.36)"/></g><path class="cls-11" d="M296.36,161.75s3.25-.81,3.17-.15-10.77,6.87-15.73,9.19l-.11-.21,12.53-7.14S295.82,162.09,296.36,161.75Z" transform="translate(-40.04 -5.36)"/><path class="cls-5" d="M283.54,170.65a.56.56,0,0,0,.18-.07l.47-.25,1.75-.91c1.46-.78,3.48-1.89,5.68-3.16s4.15-2.47,5.56-3.35l1.66-1.07.45-.29.15-.11a.32.32,0,0,0-.17.09l-.45.28c-.47.27-1,.61-1.69,1-1.42.86-3.39,2-5.58,3.32s-4.2,2.39-5.66,3.19l-1.72.95-.46.27A.56.56,0,0,0,283.54,170.65Z" transform="translate(-40.04 -5.36)"/><path class="cls-5" d="M296.31,163.59a4.18,4.18,0,0,1-.16-1,4.26,4.26,0,0,1,.21-1,1.73,1.73,0,0,0-.05,2Z" transform="translate(-40.04 -5.36)"/><path class="cls-5" d="M292.73,163.79s.08-.23.09-.53a1.25,1.25,0,0,0-.05-.54,1.43,1.43,0,0,0-.09.54A1.35,1.35,0,0,0,292.73,163.79Z" transform="translate(-40.04 -5.36)"/><path class="cls-5" d="M291.74,163.83a2,2,0,0,0,.2-.41A.89.89,0,0,0,292,163s-.12.18-.2.41A.91.91,0,0,0,291.74,163.83Z" transform="translate(-40.04 -5.36)"/><path class="cls-5" d="M290.75,163.22s.25-.06.52-.22.48-.3.46-.33-.25.07-.52.22S290.73,163.19,290.75,163.22Z" transform="translate(-40.04 -5.36)"/><path class="cls-5" d="M290.22,162.7a1.13,1.13,0,0,0,.65-.16,1.11,1.11,0,0,0,.52-.4,3,3,0,0,0-.57.28A3.28,3.28,0,0,0,290.22,162.7Z" transform="translate(-40.04 -5.36)"/><path class="cls-5" d="M292.57,162.79a1.89,1.89,0,0,0,.6-.35,4.6,4.6,0,0,0,.56-.52,1.93,1.93,0,0,0,.28-.36.38.38,0,0,0,0-.28.26.26,0,0,0-.23-.18,1.31,1.31,0,0,0-1.18,1.12,1.46,1.46,0,0,0,0,.51c0,.12.08.18.09.17a1.78,1.78,0,0,1,0-.65,1.25,1.25,0,0,1,.32-.65,1.08,1.08,0,0,1,.75-.37c.13,0,.16.15.09.27a1.7,1.7,0,0,1-.26.34,4.34,4.34,0,0,1-.52.53C292.79,162.64,292.56,162.79,292.57,162.79Z" transform="translate(-40.04 -5.36)"/><path class="cls-5" d="M292.75,162.73a.65.65,0,0,0-.18-.46,1,1,0,0,0-.41-.34.68.68,0,0,0-.65,0,.26.26,0,0,0,0,.38.57.57,0,0,0,.25.21,1.94,1.94,0,0,0,.5.2,1,1,0,0,0,.48.05,3.84,3.84,0,0,1-.45-.14,2,2,0,0,1-.47-.21c-.15-.08-.34-.28-.21-.39a.66.66,0,0,1,.55,0,1.14,1.14,0,0,1,.39.3A3,3,0,0,1,292.75,162.73Z" transform="translate(-40.04 -5.36)"/><path class="cls-5" d="M282.25,168a4.28,4.28,0,0,1,.7-.38,3.42,3.42,0,0,1,3.59.53c.38.32.54.58.56.56s0-.07-.1-.19a2.79,2.79,0,0,0-.4-.44,3.33,3.33,0,0,0-1.76-.84,3.22,3.22,0,0,0-1.95.3,2.25,2.25,0,0,0-.51.31A.49.49,0,0,0,282.25,168Z" transform="translate(-40.04 -5.36)"/><path class="cls-5" d="M287.8,167.15a6.08,6.08,0,0,0,1.45-.65,5.85,5.85,0,0,0,1.3-.91s-.61.36-1.37.79S287.79,167.11,287.8,167.15Z" transform="translate(-40.04 -5.36)"/><path class="cls-5" d="M286,168.21s.13.1.27.2.26.21.28.19,0-.17-.2-.29S286,168.18,286,168.21Z" transform="translate(-40.04 -5.36)"/><path class="cls-5" d="M284.77,167.75s.11.1.26.14.29.05.3,0-.11-.09-.26-.14S284.78,167.72,284.77,167.75Z" transform="translate(-40.04 -5.36)"/><path class="cls-5" d="M283.56,167.93s.15,0,.31-.08.3,0,.32,0-.15-.13-.35-.08S283.53,167.91,283.56,167.93Z" transform="translate(-40.04 -5.36)"/><path class="cls-5" d="M282.74,168.16s.09.05.18,0,.17-.05.17-.09-.09,0-.19,0S282.74,168.12,282.74,168.16Z" transform="translate(-40.04 -5.36)"/><path class="cls-5" d="M215.13,156.1l36.61-34.51a12,12,0,0,1,8.61-3.62h0A12,12,0,0,1,270.77,124l18.74,32.19-11.89,6.86-18-23-18,16.32Z" transform="translate(-40.04 -5.36)"/><path class="cls-5" d="M204.34,157.83c-.15.47-1.23,12.26,14.59,12.26h42.33a9.68,9.68,0,0,0,9.69-9.68v0h0a9.69,9.69,0,0,0-9.69-9.69H221.85a9.74,9.74,0,0,0-4.08.9Z" transform="translate(-40.04 -5.36)"/><path class="cls-9" d="M265,150.7c0,.1-8.74.17-19.54.17s-19.53-.07-19.53-.17,8.73-.17,19.53-.17S265,150.61,265,150.7Z" transform="translate(-40.04 -5.36)"/><path class="cls-9" d="M258.46,132c.09,0,.1,1.83.43,4.05s.85,4,.75,4A16.92,16.92,0,0,1,258.46,132Z" transform="translate(-40.04 -5.36)"/><path class="cls-9" d="M260.25,131.78a25.89,25.89,0,0,1-.71,8.27c-.1,0,.16-1.86.35-4.14S260.15,131.78,260.25,131.78Z" transform="translate(-40.04 -5.36)"/><path class="cls-5" d="M227.45,79.85a1.23,1.23,0,0,1-2,1.1c-.72-.56-.61-1.68-.28-2.54a4.65,4.65,0,0,0,.6-2.6A6,6,0,0,0,224.7,74a4,4,0,0,1-.43-3.49A3.31,3.31,0,0,1,227,68.38c1.24-.1,2.6.55,3.66-.14.75-.48,1-1.49,1.63-2.13,1-1,2.6-.86,3.95-.41s2.61,1.16,4,1.09a18.49,18.49,0,0,0,3.36-.94,6.13,6.13,0,0,1,6.23,9.77c-.57.71-1.85,2.83-4.4,2.31" transform="translate(-40.04 -5.36)"/><path class="cls-12" d="M228.9,70.21l-.34,1.84-5.31,27.42a6,6,0,0,0,5,6.89h0a6.32,6.32,0,0,0,7.47-4.65c.71-3.36,1.52-6.89,1.52-6.89s4.49.18,6.56-5.29a62.25,62.25,0,0,0,2.4-11.19,6.1,6.1,0,0,0-5.18-6.91,1.15,1.15,0,0,0-.26,0Z" transform="translate(-40.04 -5.36)"/><path class="cls-5" d="M243.66,81.06a.74.74,0,0,1-.86.59.7.7,0,0,1-.61-.79v0a.74.74,0,0,1,.85-.59.71.71,0,0,1,.62.79Z" transform="translate(-40.04 -5.36)"/><path class="cls-5" d="M244.72,80.53c-.11.08-.57-.44-1.35-.61s-1.44.12-1.5,0,.09-.2.38-.33a2.08,2.08,0,0,1,1.23-.14,1.92,1.92,0,0,1,1.06.6C244.73,80.31,244.78,80.5,244.72,80.53Z" transform="translate(-40.04 -5.36)"/><path class="cls-5" d="M236.19,79.54a.74.74,0,0,1-.85.59.71.71,0,0,1-.62-.8h0a.76.76,0,0,1,.86-.59.71.71,0,0,1,.61.8Z" transform="translate(-40.04 -5.36)"/><path class="cls-5" d="M237,79.08c-.11.08-.58-.44-1.36-.6s-1.43.11-1.5,0,.1-.2.38-.33a2,2,0,0,1,1.23-.11,1.93,1.93,0,0,1,1,.6C237,78.86,237.07,79.05,237,79.08Z" transform="translate(-40.04 -5.36)"/><path class="cls-5" d="M238.65,85.47a4.72,4.72,0,0,1,1.3,0c.2,0,.41,0,.46-.12a1,1,0,0,0,0-.65l-.28-1.64a27.54,27.54,0,0,1-.49-4.24,27.16,27.16,0,0,1,.84,4.2c.08.57.17,1.12.25,1.64a1.25,1.25,0,0,1-.06.81.51.51,0,0,1-.39.22,2,2,0,0,1-.35,0A5.63,5.63,0,0,1,238.65,85.47Z" transform="translate(-40.04 -5.36)"/><path class="cls-13" d="M237.27,94.82a14.65,14.65,0,0,1-7.16-3.6s1,4.27,6.81,4.92Z" transform="translate(-40.04 -5.36)"/><path class="cls-5" d="M236.24,85.52c.12,0,0,.88.55,1.63s1.53.84,1.51,1-.24.11-.65,0a2.2,2.2,0,0,1-1.27-.76,1.92,1.92,0,0,1-.41-1.35C236.05,85.7,236.18,85.51,236.24,85.52Z" transform="translate(-40.04 -5.36)"/><path class="cls-5" d="M237.86,76.06c-.13.2-.88-.06-1.82-.14s-1.74,0-1.82-.2.14-.27.48-.42a3.08,3.08,0,0,1,1.41-.19,3,3,0,0,1,1.35.45C237.78,75.77,237.91,76,237.86,76.06Z" transform="translate(-40.04 -5.36)"/><path class="cls-5" d="M244.91,78.21c-.18.15-.65-.15-1.31-.29s-1.22-.12-1.3-.34.09-.26.36-.38a2,2,0,0,1,2.12.51C245,77.94,245,78.15,244.91,78.21Z" transform="translate(-40.04 -5.36)"/><path class="cls-5" d="M246.93,75.87a8.22,8.22,0,0,1-6.71-1.68c-2.3-1.7-5.14-2.83-5.86-2.44s-1.3,3-4,3.26c0,0-.7,5-2.64,4.47s.4-10.34.4-10.34l5.48.84,5.45-.08L244,71.47l3.67,1.73Z" transform="translate(-40.04 -5.36)"/><path class="cls-5" d="M228.3,67.73c0-.08.49-.16,1,.15s.65.79.59.81-.32-.3-.74-.55S228.3,67.82,228.3,67.73Z" transform="translate(-40.04 -5.36)"/><path class="cls-5" d="M230.28,66.43c.09,0-.06.6-.09,1.3s.15,1.24.07,1.3-.42-.51-.37-1.3A2,2,0,0,1,230.28,66.43Z" transform="translate(-40.04 -5.36)"/><path class="cls-12" d="M228.28,77.5c-.07-.06-3-1.8-3.76,1.49s2.74,3.34,2.76,3.26S228.28,77.5,228.28,77.5Z" transform="translate(-40.04 -5.36)"/><path class="cls-13" d="M226.55,80.75a.42.42,0,0,0-.17,0,.59.59,0,0,1-.43-.08,1.44,1.44,0,0,1-.38-1.42,2,2,0,0,1,.34-.79.62.62,0,0,1,.53-.34.29.29,0,0,1,.3.22v.18s.08,0,.09-.18a.36.36,0,0,0-.09-.24.42.42,0,0,0-.3-.15.83.83,0,0,0-.71.38,2,2,0,0,0-.4.87,1.52,1.52,0,0,0,.53,1.61.64.64,0,0,0,.54,0C226.55,80.86,226.55,80.78,226.55,80.75Z" transform="translate(-40.04 -5.36)"/><path class="cls-9" d="M239.2,79.45a7.35,7.35,0,0,0-.18-.84,3.53,3.53,0,0,0-1.3-1.85,3.36,3.36,0,1,0-3.91,5.47,3.31,3.31,0,0,0,3.92-.07,3.52,3.52,0,0,0,1.3-1.84c.15-.53.14-.84.17-.84s0,.07,0,.22a2.36,2.36,0,0,1-.07.65,3.47,3.47,0,0,1-1.26,2,3.64,3.64,0,0,1-3.44.56,3.65,3.65,0,0,1-1.71-5.61,3.65,3.65,0,0,1,5.15-.71,3.5,3.5,0,0,1,1.26,2,2.36,2.36,0,0,1,.07.65A.36.36,0,0,1,239.2,79.45Z" transform="translate(-40.04 -5.36)"/><path class="cls-9" d="M247.6,81a8.49,8.49,0,0,0-.17-.84,3.54,3.54,0,0,0-1.31-1.85,3.36,3.36,0,1,0,0,5.38,3.54,3.54,0,0,0,1.31-1.85c.15-.53.13-.84.17-.84a.81.81,0,0,1,0,.22,2.46,2.46,0,0,1-.06.66,3.53,3.53,0,0,1-1.3,2,3.65,3.65,0,0,1-5.11-.67,3.64,3.64,0,0,1,5-5.15l.08.06a3.47,3.47,0,0,1,1.3,2,2.35,2.35,0,0,1,.06.65A.74.74,0,0,1,247.6,81Z" transform="translate(-40.04 -5.36)"/><path class="cls-9" d="M232.59,77.5a13.51,13.51,0,0,1-4.21,0,12.4,12.4,0,0,1,4.21,0Z" transform="translate(-40.04 -5.36)"/><path class="cls-9" d="M240.6,80.28c-.09,0-.3-.28-.65-.39s-.73,0-.79,0,0-.13.19-.22a.94.94,0,0,1,1.23.36C240.64,80.15,240.64,80.26,240.6,80.28Z" transform="translate(-40.04 -5.36)"/><polygon class="cls-2" points="192.82 145.07 192.82 142.89 223.74 143.52 241.55 115.07 243.19 116.25 224.94 145.34 192.82 145.07"/><path class="cls-12" d="M254.25,140.94l1.56,2.31V148a1,1,0,0,1-1.13-.46,18.71,18.71,0,0,1-.76-2.85l-.74,2a1.68,1.68,0,0,1-2,1l-5.73-1.44,2.35-6.7Z" transform="translate(-40.04 -5.36)"/><path class="cls-6" d="M222.58,95.08s-8.56,2.13-11.13,6-5.49,10.24-8.64,22.64c-2.75,10.81-4.87,28.09-1.89,32.15a12.68,12.68,0,0,0,3.35,3.5l6.61-2.37a50.84,50.84,0,0,0,17.2-10.35l10.14-9.24-5.36-4.24s4.07-22,3-29.74C234.9,96.64,222.58,95.08,222.58,95.08Z" transform="translate(-40.04 -5.36)"/><path class="cls-6" d="M224.79,101.68c-3.29.82-6.46,2.16-11,2.54a5,5,0,0,1-3-.65c-2.84-1.76-1.86-5-.31-7.17s4.24-4.31,7.07-4a3.27,3.27,0,0,1,1.62-3.81,5.31,5.31,0,0,1,4.38-.1,16.33,16.33,0,0,1,3.84,2.36l4.83,3.66a9.08,9.08,0,0,1,2.84,2.88c.65,1.21,2.94,6,1.91,6.83a3.21,3.21,0,0,1-1.95,0l-.12-.08A11.87,11.87,0,0,0,224.79,101.68Z" transform="translate(-40.04 -5.36)"/><path class="cls-6" d="M219.93,105.7l-5.66,26.45a9.47,9.47,0,0,0,6,10.88l24.59,4.71,3.07-9.17h0l-20-6.22,5.86-25.55Z" transform="translate(-40.04 -5.36)"/><path class="cls-5" d="M214.06,137.17a.94.94,0,0,1,0,.16l.09.46a1.72,1.72,0,0,0,.07.34c0,.12.09.25.14.39l.17.46.27.49a6.69,6.69,0,0,0,2,2.11,11.34,11.34,0,0,0,3.6,1.57l24.35,4.45-.16.1c1-2.91,2.08-6,3.2-9.18l.1.2-20-6.21-.15,0,0-.16c.34-1.37.71-2.82,1.09-4.29,1.16-4.64,2.25-9.17,3.19-13.57.46-2.2.91-4.37,1.21-6.51.09-.53.09-1.06.13-1.59a6.67,6.67,0,0,0-.17-1.54,6.53,6.53,0,0,0-1.36-2.72,6.7,6.7,0,0,0-5.21-2.33,6.81,6.81,0,0,0-4.87,2.48,12.88,12.88,0,0,0-2.47,4.56,41,41,0,0,0-1.13,4.75c-1.21,6.14-2.19,11.07-2.87,14.55-.34,1.71-.62,3-.8,4l-.21,1a2.79,2.79,0,0,1-.09.36,1.89,1.89,0,0,1,.05-.36c.06-.24.11-.59.19-1,.17-.92.41-2.25.73-4,.65-3.45,1.6-8.42,2.76-14.56a41.11,41.11,0,0,1,1.12-4.79,12.8,12.8,0,0,1,2.54-4.7,7.05,7.05,0,0,1,5-2.57,6.85,6.85,0,0,1,6.89,5.27,7.48,7.48,0,0,1,.19,1.63c-.05.53-.05,1.09-.14,1.62-.3,2.16-.74,4.33-1.2,6.51-.94,4.41-2,9-3.19,13.58l-1.1,4.3-.11-.21L248,138.39l.16.05,0,.15c-1.13,3.19-2.2,6.26-3.26,9.16l0,.12h-.12c-10.07-1.88-18.45-3.42-24.32-4.56a11.15,11.15,0,0,1-3.64-1.63,6.53,6.53,0,0,1-2-2.16q-.13-.27-.27-.51a2.32,2.32,0,0,1-.15-.47l-.14-.4-.05-.34c0-.2-.06-.35-.08-.47Z" transform="translate(-40.04 -5.36)"/><path class="cls-5" d="M224.56,135.81s-.07-.3.05-.78a3.71,3.71,0,0,1,2.67-2.57c.49-.1.8-.06.8,0s-.3.1-.73.25a4.47,4.47,0,0,0-1.51.94,4.36,4.36,0,0,0-1,1.47A4,4,0,0,1,224.56,135.81Z" transform="translate(-40.04 -5.36)"/><g class="cls-14"><path d="M219.35,105.34a153.09,153.09,0,0,0-5.92,28.25,22.81,22.81,0,0,0-.13,6.65,7.38,7.38,0,0,0,9.33,6.48c2.05-.38,5.35-.84,7.22-1.73l-11-2.26s-7.09-.44-4-14S219.35,105.34,219.35,105.34Z" transform="translate(-40.04 -5.36)"/></g><g class="cls-14"><path d="M210,103.09c-.05,1.08.06,2.42,1.05,2.88s2.11-.39,2.93-1.14a47.4,47.4,0,0,1,11.19-7.67A26.16,26.16,0,0,0,210,103.29" transform="translate(-40.04 -5.36)"/></g><path class="cls-5" d="M231.52,99.77a18.73,18.73,0,0,0-3-1.61,12.81,12.81,0,0,0-3.61-.83,12,12,0,0,0-4.49.49,22.84,22.84,0,0,0-4.18,1.83c-1.23.65-2.34,1.3-3.29,1.81a25.38,25.38,0,0,1-2.3,1.09,4.44,4.44,0,0,1-.89.3,6.58,6.58,0,0,1,.84-.42c.54-.26,1.3-.65,2.23-1.18l3.26-1.87a21.32,21.32,0,0,1,4.23-1.88A11.8,11.8,0,0,1,224.9,97a12.59,12.59,0,0,1,3.67.91,10.58,10.58,0,0,1,2.23,1.24,5.91,5.91,0,0,1,.54.43C231.47,99.7,231.53,99.76,231.52,99.77Z" transform="translate(-40.04 -5.36)"/><path class="cls-5" d="M235,101.14s-.82-.73-2.19-1.84a31.74,31.74,0,0,0-12.25-6.1c-1.71-.43-2.8-.59-2.78-.65a4,4,0,0,1,.77,0,20.83,20.83,0,0,1,2.07.36,28.48,28.48,0,0,1,12.34,6.15,19,19,0,0,1,1.54,1.44A3.48,3.48,0,0,1,235,101.14Z" transform="translate(-40.04 -5.36)"/><path class="cls-2" d="M236.61,122.55a2.1,2.1,0,0,1-.13-.55,15.24,15.24,0,0,1-.22-1.56,7.92,7.92,0,0,1,.11-2.43,1.42,1.42,0,0,1,1.08-1.1.84.84,0,0,1,.83.34.77.77,0,0,1-.05,1l0,0h0a1,1,0,0,1-.94-.36,1.74,1.74,0,0,1-.4-.92c-.07-.65-.08-1.3-.12-1.95-.16-3.12-.29-6-.36-8,0-1-.06-1.78-.08-2.42a4.41,4.41,0,0,1,0-.89,4.32,4.32,0,0,1,.11.88c0,.65.11,1.45.18,2.42.14,2,.31,4.87.47,8,0,.65,0,1.3.12,1.9a1.35,1.35,0,0,0,.3.75.77.77,0,0,0,.65.28l-.08,0a.42.42,0,0,0,0-.54.52.52,0,0,0-.54-.22,1.13,1.13,0,0,0-.85.88,8.28,8.28,0,0,0-.17,2.33C236.53,121.77,236.66,122.54,236.61,122.55Z" transform="translate(-40.04 -5.36)"/><path class="cls-5" d="M225.9,144.08a6.25,6.25,0,0,1-.79.75c-.52.46-1.3,1.12-2.29,1.9a72,72,0,0,1-8.1,5.54,68.68,68.68,0,0,1-8.81,4.36c-1.16.47-2.11.83-2.78,1.05a7.49,7.49,0,0,1-1,.32,7,7,0,0,1,1-.42c.65-.26,1.59-.65,2.74-1.15a81.94,81.94,0,0,0,8.72-4.42,85.7,85.7,0,0,0,8.12-5.5c1-.75,1.8-1.37,2.35-1.81A6.46,6.46,0,0,1,225.9,144.08Z" transform="translate(-40.04 -5.36)"/><path class="cls-5" d="M206.09,158.88c-.08.05-.47-.34-.87-.87a2.54,2.54,0,0,1-.6-1.08c0-.06.46.34.87.87S206.16,158.82,206.09,158.88Z" transform="translate(-40.04 -5.36)"/><path class="cls-5" d="M210,157.22c0,.07-.58-.23-1.09-.79s-.75-1.12-.65-1.16.45.41.93.94S210.07,157.14,210,157.22Z" transform="translate(-40.04 -5.36)"/><path class="cls-5" d="M215,155.59c-.06.06-.61-.44-1.22-1.12a4.43,4.43,0,0,1-1-1.35c.07-.07.62.44,1.22,1.12A4.15,4.15,0,0,1,215,155.59Z" transform="translate(-40.04 -5.36)"/><path class="cls-5" d="M220.25,152.77c-.07.06-.65-.52-1.3-1.3a5,5,0,0,1-1-1.52c.07-.06.65.53,1.3,1.3A5.08,5.08,0,0,1,220.25,152.77Z" transform="translate(-40.04 -5.36)"/><path class="cls-5" d="M225.17,149.12a4.49,4.49,0,0,1-1.38-1c-.71-.65-1.24-1.21-1.17-1.31a4.75,4.75,0,0,1,1.39,1C224.72,148.46,225.25,149,225.17,149.12Z" transform="translate(-40.04 -5.36)"/></g><g id="freepik--Wifi--inject-90"><circle class="cls-9" cx="209.42" cy="90.9" r="1.51"/><path class="cls-9" d="M246.44,94.32a4.19,4.19,0,0,1,5.91-.22l.15.14a.85.85,0,0,0,1.21-1.2,5.92,5.92,0,0,0-8.36,0l-.1.11c-.76.78.43,2,1.19,1.2Z" transform="translate(-40.04 -5.36)"/><path class="cls-9" d="M241.31,87.26A12.39,12.39,0,0,1,249.42,84a12,12,0,0,1,8.28,3.17c.8.75,2-.45,1.21-1.2a13.82,13.82,0,0,0-9.48-3.67A14.24,14.24,0,0,0,240.11,86c-.83.72.37,1.93,1.2,1.22Z" transform="translate(-40.04 -5.36)"/><path class="cls-9" d="M243.33,91.17a8.32,8.32,0,0,1,11.74-.64c.17.15.33.31.48.47.77.78,2-.42,1.21-1.2a10,10,0,0,0-14.15-.32l-.48.48c-.74.81.46,2,1.2,1.21Z" transform="translate(-40.04 -5.36)"/></g></svg>